<svg id="svg" version="1.1" xmlns="http://www.w3.org/2000/svg" xmlns:xlink="http://www.w3.org/1999/xlink" width="400" height="400" viewBox="0, 0, 400,400"><g id="svgg"><path id="path0" d="M72.600 50.000 C 72.115 50.536,71.368 50.800,70.338 50.800 C 69.492 50.800,68.800 50.991,68.800 51.224 C 68.800 51.457,68.620 51.536,68.400 51.400 C 68.180 51.264,68.000 51.433,68.000 51.776 C 68.000 52.189,67.627 52.402,66.900 52.406 C 65.683 52.413,64.700 52.897,64.789 53.445 C 64.821 53.640,64.466 53.890,64.000 54.000 C 63.534 54.110,63.163 54.335,63.176 54.500 C 63.252 55.456,63.070 55.600,61.782 55.600 C 60.654 55.600,60.389 55.743,60.482 56.300 C 60.561 56.767,60.301 57.042,59.700 57.128 C 59.122 57.210,58.800 57.532,58.800 58.028 C 58.800 58.524,58.524 58.800,58.028 58.800 C 57.532 58.800,57.210 59.122,57.128 59.700 C 57.042 60.301,56.767 60.561,56.300 60.482 C 55.743 60.389,55.600 60.654,55.600 61.782 C 55.600 63.070,55.456 63.252,54.500 63.176 C 54.335 63.163,54.110 63.534,54.000 64.000 C 53.890 64.466,53.640 64.821,53.445 64.789 C 52.897 64.700,52.413 65.683,52.406 66.900 C 52.402 67.627,52.189 68.000,51.776 68.000 C 51.433 68.000,51.264 68.180,51.400 68.400 C 51.536 68.620,51.457 68.800,51.224 68.800 C 50.991 68.800,50.800 69.492,50.800 70.338 C 50.800 71.369,50.536 72.115,49.998 72.602 C 49.205 73.320,49.197 73.738,49.298 111.564 L 49.400 149.800 200.000 149.800 L 350.600 149.800 350.702 111.564 C 350.803 73.738,350.795 73.320,350.002 72.602 C 349.511 72.158,349.200 71.369,349.200 70.571 C 349.200 68.868,348.848 68.000,348.157 68.000 C 347.835 68.000,347.600 67.593,347.600 67.033 C 347.600 65.652,347.202 64.800,346.557 64.800 C 346.251 64.800,346.000 64.452,346.000 64.027 C 346.000 63.602,345.640 63.140,345.200 63.000 C 344.640 62.822,344.400 62.395,344.400 61.573 C 344.400 60.667,344.218 60.400,343.600 60.400 C 343.067 60.400,342.800 60.133,342.800 59.600 C 342.800 59.067,342.533 58.800,342.000 58.800 C 341.560 58.800,341.221 58.665,341.247 58.500 C 341.376 57.687,341.129 57.275,340.400 57.084 C 339.960 56.969,339.600 56.588,339.600 56.237 C 339.600 55.799,339.234 55.600,338.427 55.600 C 337.605 55.600,337.178 55.360,337.000 54.800 C 336.860 54.360,336.398 54.000,335.973 54.000 C 335.548 54.000,335.200 53.732,335.200 53.405 C 335.200 53.020,334.635 52.719,333.600 52.554 C 332.711 52.411,332.000 52.073,332.000 51.792 C 332.000 51.149,331.094 50.800,329.429 50.800 C 328.632 50.800,327.842 50.489,327.400 50.000 C 326.244 48.722,318.244 48.796,317.552 50.090 C 317.192 50.762,317.139 55.443,317.334 69.190 C 317.558 84.984,317.513 87.503,316.996 88.176 C 316.668 88.604,316.400 89.298,316.400 89.721 C 316.400 90.549,314.063 94.400,313.560 94.400 C 313.391 94.400,313.140 94.760,313.000 95.200 C 312.860 95.640,312.488 96.000,312.173 96.000 C 311.858 96.000,311.593 96.225,311.585 96.500 C 311.570 97.041,308.399 99.200,307.620 99.200 C 307.357 99.200,306.895 99.448,306.592 99.751 C 305.346 100.997,294.595 100.999,293.562 99.754 C 293.309 99.449,292.764 99.200,292.351 99.200 C 291.938 99.200,291.240 98.840,290.800 98.400 C 290.360 97.960,289.822 97.600,289.603 97.600 C 289.385 97.600,288.982 97.240,288.707 96.800 C 288.432 96.360,287.993 96.000,287.731 96.000 C 287.468 96.000,287.145 95.657,287.012 95.237 C 286.879 94.817,286.506 94.373,286.185 94.250 C 285.863 94.126,285.600 93.777,285.600 93.475 C 285.600 93.172,285.253 92.610,284.829 92.226 C 284.405 91.843,283.941 90.835,283.798 89.987 C 283.655 89.140,283.280 88.233,282.966 87.972 C 282.479 87.568,282.434 84.768,282.662 68.968 C 282.876 54.155,282.827 50.314,282.416 49.819 C 281.955 49.264,273.437 49.200,199.965 49.200 L 118.028 49.200 117.552 50.090 C 117.192 50.762,117.139 55.443,117.334 69.190 C 117.558 84.984,117.513 87.503,116.996 88.176 C 116.668 88.604,116.400 89.298,116.400 89.721 C 116.400 90.549,114.063 94.400,113.560 94.400 C 113.391 94.400,113.140 94.760,113.000 95.200 C 112.860 95.640,112.488 96.000,112.173 96.000 C 111.858 96.000,111.593 96.225,111.585 96.500 C 111.570 97.041,108.399 99.200,107.620 99.200 C 107.357 99.200,106.895 99.448,106.592 99.751 C 105.346 100.997,94.595 100.999,93.562 99.754 C 93.309 99.449,92.764 99.200,92.351 99.200 C 91.938 99.200,91.240 98.840,90.800 98.400 C 90.360 97.960,89.822 97.600,89.603 97.600 C 89.385 97.600,88.982 97.240,88.707 96.800 C 88.432 96.360,87.993 96.000,87.731 96.000 C 87.468 96.000,87.145 95.657,87.012 95.237 C 86.879 94.817,86.506 94.373,86.185 94.250 C 85.863 94.126,85.600 93.777,85.600 93.475 C 85.600 93.172,85.253 92.610,84.829 92.226 C 84.405 91.843,83.941 90.835,83.798 89.987 C 83.655 89.140,83.280 88.232,82.965 87.971 C 82.476 87.565,82.431 84.822,82.660 69.241 C 82.862 55.417,82.811 50.769,82.450 50.093 C 81.756 48.796,73.758 48.721,72.600 50.000 " stroke="none" fill="#e84a3a" fill-rule="evenodd"></path><path id="path1" d="M96.538 15.783 C 96.720 16.257,96.571 16.293,95.735 15.975 C 94.950 15.677,94.755 15.705,94.903 16.093 C 95.043 16.456,94.599 16.597,93.341 16.590 C 92.176 16.584,91.643 16.736,91.761 17.042 C 91.995 17.652,91.215 18.400,90.344 18.400 C 89.961 18.400,89.519 18.608,89.362 18.862 C 89.170 19.172,89.260 19.217,89.638 18.998 C 89.971 18.805,90.064 18.820,89.867 19.036 C 89.683 19.236,89.413 19.409,89.267 19.420 C 88.191 19.499,87.098 20.236,86.585 21.228 C 86.252 21.873,85.883 22.400,85.766 22.400 C 85.649 22.400,85.681 22.192,85.838 21.938 C 86.011 21.659,85.948 21.585,85.679 21.751 C 85.435 21.902,85.325 22.259,85.434 22.544 C 85.543 22.830,85.221 23.279,84.717 23.544 C 84.212 23.808,84.115 23.935,84.500 23.825 C 84.885 23.715,85.200 23.786,85.200 23.983 C 85.200 24.180,84.907 24.400,84.548 24.471 C 84.134 24.553,83.859 25.073,83.795 25.898 C 83.739 26.612,83.349 27.512,82.928 27.898 C 82.507 28.284,82.375 28.460,82.634 28.290 C 82.913 28.107,83.203 28.230,83.341 28.590 C 83.479 28.951,83.354 29.200,83.034 29.200 C 82.315 29.200,81.894 30.885,82.515 31.280 C 82.867 31.503,82.835 31.591,82.400 31.600 C 81.867 31.611,81.867 31.659,82.400 32.037 C 82.807 32.324,82.853 32.522,82.542 32.650 C 82.291 32.753,82.169 33.158,82.271 33.550 C 82.373 33.941,82.489 37.217,82.528 40.830 C 82.592 46.662,82.673 47.388,83.254 47.293 C 84.230 47.133,84.476 48.825,84.753 57.600 L 85.000 65.400 100.000 65.400 L 115.000 65.400 115.099 58.000 C 115.154 53.930,115.379 50.195,115.599 49.700 C 116.736 47.148,116.958 46.808,117.216 47.226 C 117.999 48.492,118.347 36.977,117.621 33.846 C 117.379 32.806,117.406 32.059,117.702 31.586 C 118.042 31.041,117.987 30.639,117.460 29.835 C 117.084 29.262,116.917 28.815,117.088 28.843 C 117.974 28.989,118.037 28.726,117.272 28.063 C 116.789 27.643,116.379 26.755,116.321 26.002 C 116.255 25.126,115.980 24.615,115.510 24.492 C 115.087 24.382,114.800 23.931,114.800 23.377 C 114.800 22.866,114.617 22.334,114.393 22.196 C 114.170 22.058,114.085 21.787,114.204 21.593 C 114.324 21.400,114.040 21.315,113.574 21.405 C 112.959 21.523,112.788 21.408,112.951 20.984 C 113.093 20.613,112.925 20.398,112.487 20.394 C 111.892 20.389,111.880 20.331,112.400 19.959 C 112.882 19.615,112.823 19.569,112.100 19.728 C 111.606 19.836,111.083 19.734,110.939 19.501 C 110.784 19.251,110.867 19.194,111.138 19.362 C 111.656 19.682,111.742 19.235,111.294 18.552 C 111.132 18.305,110.495 18.159,109.878 18.227 C 109.031 18.320,108.669 18.135,108.403 17.475 C 108.209 16.994,108.039 16.757,108.025 16.949 C 108.011 17.141,107.732 17.076,107.405 16.804 C 107.078 16.533,106.558 16.407,106.249 16.526 C 105.940 16.644,105.308 16.387,104.844 15.955 C 104.158 15.316,104.000 15.284,104.000 15.784 C 104.000 16.123,103.801 16.400,103.557 16.400 C 103.314 16.400,103.223 16.117,103.356 15.771 C 103.528 15.321,103.398 15.185,102.899 15.295 C 102.514 15.379,102.233 15.627,102.274 15.846 C 102.317 16.075,101.218 16.264,99.701 16.291 C 98.245 16.316,97.282 16.196,97.561 16.024 C 97.945 15.787,97.906 15.650,97.401 15.456 C 96.427 15.082,96.289 15.134,96.538 15.783 M296.538 15.783 C 296.720 16.257,296.571 16.293,295.735 15.975 C 294.950 15.677,294.755 15.705,294.903 16.093 C 295.043 16.456,294.599 16.597,293.341 16.590 C 292.176 16.584,291.643 16.736,291.761 17.042 C 291.995 17.652,291.215 18.400,290.344 18.400 C 289.961 18.400,289.519 18.608,289.362 18.862 C 289.170 19.172,289.260 19.217,289.638 18.998 C 289.971 18.805,290.064 18.820,289.867 19.036 C 289.683 19.236,289.413 19.409,289.267 19.420 C 288.191 19.499,287.098 20.236,286.585 21.228 C 286.252 21.873,285.883 22.400,285.766 22.400 C 285.649 22.400,285.681 22.192,285.838 21.938 C 286.011 21.659,285.948 21.585,285.679 21.751 C 285.435 21.902,285.325 22.259,285.434 22.544 C 285.543 22.830,285.221 23.279,284.717 23.544 C 284.212 23.808,284.115 23.935,284.500 23.825 C 284.885 23.715,285.200 23.786,285.200 23.983 C 285.200 24.180,284.907 24.400,284.548 24.471 C 284.134 24.553,283.859 25.073,283.795 25.898 C 283.739 26.612,283.349 27.512,282.928 27.898 C 282.507 28.284,282.375 28.460,282.634 28.290 C 282.913 28.107,283.203 28.230,283.341 28.590 C 283.479 28.951,283.354 29.200,283.034 29.200 C 282.315 29.200,281.894 30.885,282.515 31.280 C 282.867 31.503,282.835 31.591,282.400 31.600 C 281.867 31.611,281.867 31.659,282.400 32.037 C 282.854 32.358,282.878 32.510,282.498 32.665 C 282.221 32.777,282.101 33.040,282.231 33.251 C 282.361 33.461,282.446 36.581,282.420 40.184 C 282.390 44.317,282.525 46.830,282.786 46.992 C 283.014 47.132,283.200 47.046,283.200 46.800 C 283.200 46.554,283.360 46.452,283.556 46.573 C 284.196 46.968,284.488 49.677,284.746 57.600 L 285.000 65.400 300.000 65.400 L 315.000 65.400 315.100 58.000 C 315.199 50.690,316.002 46.660,317.211 47.407 C 318.021 47.907,318.350 36.993,317.621 33.846 C 317.379 32.806,317.406 32.059,317.702 31.586 C 318.042 31.041,317.987 30.639,317.460 29.835 C 317.084 29.262,316.917 28.815,317.088 28.843 C 317.974 28.989,318.037 28.726,317.272 28.063 C 316.789 27.643,316.379 26.755,316.321 26.002 C 316.255 25.126,315.980 24.615,315.510 24.492 C 315.087 24.382,314.800 23.931,314.800 23.377 C 314.800 22.866,314.617 22.334,314.393 22.196 C 314.170 22.058,314.085 21.787,314.204 21.593 C 314.324 21.400,314.040 21.315,313.574 21.405 C 312.959 21.523,312.788 21.408,312.951 20.984 C 313.093 20.613,312.925 20.398,312.487 20.394 C 311.892 20.389,311.880 20.331,312.400 19.959 C 312.882 19.615,312.823 19.569,312.100 19.728 C 311.606 19.836,311.083 19.734,310.939 19.501 C 310.784 19.251,310.867 19.194,311.138 19.362 C 311.656 19.682,311.742 19.235,311.294 18.552 C 311.132 18.305,310.495 18.159,309.878 18.227 C 309.031 18.320,308.669 18.135,308.403 17.475 C 308.209 16.994,308.039 16.757,308.025 16.949 C 308.011 17.141,307.732 17.076,307.405 16.804 C 307.078 16.533,306.558 16.407,306.249 16.526 C 305.940 16.644,305.308 16.387,304.844 15.955 C 304.158 15.316,304.000 15.284,304.000 15.784 C 304.000 16.123,303.801 16.400,303.557 16.400 C 303.314 16.400,303.223 16.117,303.356 15.771 C 303.528 15.321,303.398 15.185,302.899 15.295 C 302.514 15.379,302.233 15.627,302.274 15.846 C 302.317 16.075,301.218 16.264,299.701 16.291 C 298.245 16.316,297.282 16.196,297.561 16.024 C 297.945 15.787,297.906 15.650,297.401 15.456 C 296.427 15.082,296.289 15.134,296.538 15.783 M85.067 185.067 C 84.920 185.213,84.800 192.053,84.800 200.267 L 84.800 215.200 100.000 215.200 L 115.200 215.200 115.200 200.000 L 115.200 184.800 100.267 184.800 C 92.053 184.800,85.213 184.920,85.067 185.067 M135.067 185.067 C 134.920 185.213,134.800 192.053,134.800 200.267 L 134.800 215.200 150.000 215.200 L 165.200 215.200 165.200 200.000 L 165.200 184.800 150.267 184.800 C 142.053 184.800,135.213 184.920,135.067 185.067 M185.067 185.067 C 184.920 185.213,184.800 192.053,184.800 200.267 L 184.800 215.200 200.000 215.200 L 215.200 215.200 215.200 200.000 L 215.200 184.800 200.267 184.800 C 192.053 184.800,185.213 184.920,185.067 185.067 M235.067 185.067 C 234.920 185.213,234.800 192.053,234.800 200.267 L 234.800 215.200 250.000 215.200 L 265.200 215.200 265.200 200.000 L 265.200 184.800 250.267 184.800 C 242.053 184.800,235.213 184.920,235.067 185.067 M285.067 185.067 C 284.920 185.213,284.800 192.053,284.800 200.267 L 284.800 215.200 300.000 215.200 L 315.200 215.200 315.200 200.000 L 315.200 184.800 300.267 184.800 C 292.053 184.800,285.213 184.920,285.067 185.067 M85.067 235.067 C 84.920 235.213,84.800 242.053,84.800 250.267 L 84.800 265.200 100.000 265.200 L 115.200 265.200 115.200 250.000 L 115.200 234.800 100.267 234.800 C 92.053 234.800,85.213 234.920,85.067 235.067 M135.067 235.067 C 134.920 235.213,134.800 242.053,134.800 250.267 L 134.800 265.200 150.000 265.200 L 165.200 265.200 165.200 250.000 L 165.200 234.800 150.267 234.800 C 142.053 234.800,135.213 234.920,135.067 235.067 M185.067 235.067 C 184.920 235.213,184.800 242.053,184.800 250.267 L 184.800 265.200 200.000 265.200 L 215.200 265.200 215.200 250.000 L 215.200 234.800 200.267 234.800 C 192.053 234.800,185.213 234.920,185.067 235.067 M235.067 235.067 C 234.920 235.213,234.800 242.053,234.800 250.267 L 234.800 265.200 250.000 265.200 L 265.200 265.200 265.200 250.000 L 265.200 234.800 250.267 234.800 C 242.053 234.800,235.213 234.920,235.067 235.067 M285.067 235.067 C 284.920 235.213,284.800 242.053,284.800 250.267 L 284.800 265.200 300.000 265.200 L 315.200 265.200 315.200 250.000 L 315.200 234.800 300.267 234.800 C 292.053 234.800,285.213 234.920,285.067 235.067 M85.067 285.067 C 84.920 285.213,84.800 292.053,84.800 300.267 L 84.800 315.200 100.000 315.200 L 115.200 315.200 115.200 300.000 L 115.200 284.800 100.267 284.800 C 92.053 284.800,85.213 284.920,85.067 285.067 M135.067 285.067 C 134.920 285.213,134.800 292.053,134.800 300.267 L 134.800 315.200 150.000 315.200 L 165.200 315.200 165.200 300.000 L 165.200 284.800 150.267 284.800 C 142.053 284.800,135.213 284.920,135.067 285.067 M185.067 285.067 C 184.920 285.213,184.800 292.053,184.800 300.267 L 184.800 315.200 200.000 315.200 L 215.200 315.200 215.200 300.000 L 215.200 284.800 200.267 284.800 C 192.053 284.800,185.213 284.920,185.067 285.067 M235.067 285.067 C 234.920 285.213,234.800 292.053,234.800 300.267 L 234.800 315.200 250.000 315.200 L 265.200 315.200 265.200 300.000 L 265.200 284.800 250.267 284.800 C 242.053 284.800,235.213 284.920,235.067 285.067 M285.067 285.067 C 284.920 285.213,284.800 292.053,284.800 300.267 L 284.800 315.200 300.000 315.200 L 315.200 315.200 315.200 300.000 L 315.200 284.800 300.267 284.800 C 292.053 284.800,285.213 284.920,285.067 285.067 M49.248 334.187 C 49.304 338.552,49.511 341.628,49.771 341.977 C 50.111 342.434,50.076 342.480,49.600 342.200 C 49.089 341.899,49.079 341.944,49.529 342.499 C 49.820 342.859,50.270 343.103,50.529 343.042 C 50.788 342.981,50.874 343.004,50.720 343.092 C 50.566 343.181,50.576 343.646,50.743 344.127 C 50.910 344.607,51.016 345.397,50.979 345.881 C 50.941 346.366,51.083 346.726,51.293 346.681 C 51.837 346.565,52.902 348.639,52.996 350.000 C 53.019 350.330,53.254 350.555,53.519 350.500 C 53.783 350.445,54.000 350.745,54.000 351.167 C 54.000 352.233,54.412 353.200,54.866 353.200 C 55.076 353.200,55.118 352.975,54.959 352.700 C 54.792 352.410,54.824 352.340,55.036 352.533 C 55.236 352.717,55.424 352.987,55.454 353.133 C 55.709 354.399,56.201 355.159,56.877 355.336 C 57.319 355.452,57.574 355.718,57.445 355.928 C 57.315 356.138,57.459 356.517,57.766 356.771 C 58.191 357.124,58.371 357.111,58.530 356.717 C 58.644 356.433,58.751 356.599,58.768 357.086 C 58.786 357.573,59.160 358.165,59.600 358.400 C 60.040 358.635,60.400 359.086,60.400 359.402 C 60.400 359.747,60.639 359.883,61.000 359.745 C 61.330 359.618,61.600 359.702,61.600 359.930 C 61.600 360.159,61.945 360.456,62.367 360.589 C 62.788 360.723,63.319 361.365,63.546 362.016 C 63.773 362.667,64.077 363.200,64.222 363.200 C 64.367 363.200,64.384 362.936,64.260 362.613 C 64.136 362.290,64.235 361.902,64.479 361.751 C 64.724 361.600,64.825 361.639,64.704 361.838 C 64.373 362.383,65.281 363.020,66.304 362.961 C 66.967 362.923,67.101 363.037,66.807 363.392 C 66.362 363.928,67.843 364.800,69.199 364.800 C 69.618 364.800,70.144 365.115,70.368 365.500 C 70.689 366.052,70.780 366.073,70.794 365.600 C 70.808 365.139,70.887 365.119,71.136 365.510 C 71.314 365.791,72.051 366.095,72.773 366.186 C 73.495 366.278,74.180 366.447,74.296 366.562 C 74.411 366.678,74.821 366.603,75.206 366.397 C 75.753 366.104,75.896 366.173,75.854 366.711 C 75.819 367.151,76.089 367.400,76.600 367.400 C 77.040 367.400,77.532 367.580,77.694 367.800 C 77.871 368.041,77.990 367.982,77.994 367.651 C 77.998 367.237,78.132 367.212,78.536 367.547 C 79.144 368.051,320.455 368.211,320.959 367.708 C 321.115 367.552,321.863 367.477,322.621 367.542 C 323.688 367.634,323.948 367.531,323.776 367.082 C 323.492 366.342,324.107 366.149,326.649 366.177 C 328.304 366.196,328.657 366.085,328.485 365.600 C 328.368 365.270,328.420 365.133,328.599 365.297 C 328.779 365.460,329.203 365.370,329.540 365.097 C 330.048 364.685,330.096 364.703,329.818 365.200 C 329.545 365.688,329.583 365.707,330.021 365.300 C 330.318 365.025,331.064 364.800,331.680 364.800 C 332.419 364.800,332.800 364.592,332.800 364.187 C 332.800 363.851,333.069 363.472,333.398 363.346 C 333.726 363.219,333.872 362.910,333.721 362.658 C 333.562 362.393,333.717 362.419,334.088 362.719 C 334.526 363.075,334.812 363.104,334.992 362.813 C 335.137 362.579,335.423 362.491,335.628 362.617 C 335.832 362.744,336.000 362.657,336.000 362.424 C 336.000 362.191,335.790 362.000,335.533 362.000 C 335.277 362.000,335.182 361.884,335.324 361.743 C 335.465 361.602,335.859 361.717,336.199 362.000 C 336.719 362.431,336.779 362.411,336.572 361.872 C 336.387 361.390,336.528 361.271,337.140 361.388 C 337.712 361.499,337.890 361.378,337.738 360.982 C 337.606 360.638,337.921 360.236,338.548 359.951 C 339.113 359.694,339.486 359.338,339.376 359.162 C 339.104 358.721,340.609 357.958,341.047 358.314 C 341.241 358.471,341.274 358.444,341.119 358.252 C 340.802 357.860,341.716 356.800,342.371 356.800 C 342.607 356.800,342.800 356.451,342.800 356.024 C 342.800 355.597,343.008 355.119,343.262 354.962 C 343.548 354.785,343.615 354.852,343.438 355.138 C 343.281 355.392,343.343 355.600,343.576 355.600 C 343.809 355.600,344.000 355.330,344.000 355.000 C 344.000 354.670,344.326 354.074,344.725 353.675 C 345.124 353.276,345.379 352.736,345.292 352.475 C 345.205 352.214,345.328 352.000,345.567 352.000 C 345.805 352.000,346.000 351.621,346.000 351.157 C 346.000 350.567,346.182 350.384,346.609 350.548 C 347.106 350.739,347.141 350.636,346.795 349.991 C 346.543 349.520,346.526 349.200,346.753 349.200 C 346.962 349.200,347.224 349.425,347.335 349.700 C 347.446 349.975,347.551 349.435,347.568 348.500 C 347.586 347.565,347.791 346.800,348.024 346.800 C 348.257 346.800,348.336 346.980,348.200 347.200 C 348.064 347.420,348.140 347.600,348.369 347.600 C 348.809 347.600,349.313 346.086,349.182 345.154 C 348.998 343.832,349.240 342.800,349.733 342.800 C 350.401 342.800,350.356 343.229,350.636 334.244 C 350.853 327.291,350.818 326.708,350.203 326.944 C 349.835 327.085,349.459 327.200,349.367 327.200 C 349.275 327.200,349.200 327.742,349.200 328.404 C 349.200 329.113,348.871 329.889,348.400 330.293 C 347.960 330.670,347.600 331.381,347.600 331.873 C 347.600 332.366,347.265 333.091,346.856 333.484 C 346.447 333.878,345.994 334.695,345.849 335.300 C 345.704 335.905,345.318 336.400,344.992 336.400 C 344.667 336.400,344.400 336.664,344.400 336.986 C 344.400 337.308,344.040 337.765,343.600 338.000 C 343.160 338.235,342.800 338.625,342.800 338.867 C 342.800 339.438,339.438 342.800,338.867 342.800 C 338.625 342.800,338.235 343.160,338.000 343.600 C 337.765 344.040,337.308 344.400,336.986 344.400 C 336.664 344.400,336.400 344.667,336.400 344.992 C 336.400 345.318,335.905 345.704,335.300 345.849 C 334.695 345.994,333.878 346.447,333.484 346.856 C 333.091 347.265,332.366 347.600,331.873 347.600 C 331.381 347.600,330.670 347.960,330.293 348.400 C 329.874 348.889,329.113 349.200,328.335 349.200 C 327.636 349.200,326.715 349.515,326.290 349.900 C 325.086 350.989,75.558 350.989,73.896 349.900 C 73.309 349.515,72.396 349.200,71.868 349.200 C 71.340 349.200,70.450 348.840,69.891 348.400 C 69.331 347.960,68.525 347.600,68.099 347.600 C 67.673 347.600,66.998 347.240,66.600 346.800 C 66.202 346.360,65.554 346.000,65.161 346.000 C 64.767 346.000,64.210 345.673,63.923 345.274 C 63.635 344.874,63.085 344.430,62.700 344.286 C 62.315 344.143,62.000 343.749,62.000 343.413 C 62.000 343.076,61.729 342.800,61.398 342.800 C 60.757 342.800,57.200 339.402,57.200 338.791 C 57.200 338.591,56.840 338.235,56.400 338.000 C 55.960 337.765,55.600 337.308,55.600 336.986 C 55.600 336.664,55.333 336.400,55.008 336.400 C 54.682 336.400,54.294 335.905,54.147 335.300 C 53.999 334.695,53.545 333.771,53.139 333.246 C 52.733 332.721,52.400 331.978,52.400 331.595 C 52.400 331.212,52.128 330.673,51.796 330.397 C 51.464 330.122,51.083 329.212,50.950 328.376 C 50.760 327.192,50.536 326.870,49.931 326.915 C 49.189 326.971,49.158 327.299,49.248 334.187 " stroke="none" fill="#bcc4cb" fill-rule="evenodd"></path><path id="path2" d="M49.200 236.210 L 49.200 322.020 50.167 322.387 C 50.938 322.681,51.230 323.219,51.609 325.043 C 53.711 335.169,64.755 346.600,74.010 348.229 C 74.774 348.363,76.300 348.772,77.400 349.137 C 79.245 349.749,88.739 349.800,199.800 349.800 L 320.200 349.800 323.800 348.876 C 327.495 347.928,328.212 347.659,332.000 345.803 C 337.763 342.978,342.996 337.743,345.798 332.000 C 346.388 330.790,347.115 329.307,347.414 328.704 C 347.713 328.101,348.174 326.512,348.437 325.172 C 348.823 323.214,349.102 322.666,349.858 322.378 L 350.800 322.020 350.800 236.210 L 350.800 150.400 200.000 150.400 L 49.200 150.400 49.200 236.210 M116.809 183.600 C 117.529 184.740,117.305 215.838,116.571 216.571 C 115.838 217.305,84.740 217.529,83.600 216.809 C 83.087 216.485,82.983 214.203,82.880 201.115 C 82.753 184.801,82.835 183.360,83.913 183.067 C 85.922 182.520,116.439 183.015,116.809 183.600 M166.809 183.600 C 167.529 184.740,167.305 215.838,166.571 216.571 C 165.838 217.305,134.740 217.529,133.600 216.809 C 133.087 216.485,132.983 214.203,132.880 201.115 C 132.753 184.801,132.835 183.360,133.913 183.067 C 135.922 182.520,166.439 183.015,166.809 183.600 M216.809 183.600 C 217.529 184.740,217.305 215.838,216.571 216.571 C 215.838 217.305,184.740 217.529,183.600 216.809 C 183.087 216.485,182.983 214.203,182.880 201.115 C 182.753 184.801,182.835 183.360,183.913 183.067 C 185.922 182.520,216.439 183.015,216.809 183.600 M266.809 183.600 C 267.529 184.740,267.305 215.838,266.571 216.571 C 265.838 217.305,234.740 217.529,233.600 216.809 C 233.087 216.485,232.983 214.203,232.880 201.115 C 232.753 184.801,232.835 183.360,233.913 183.067 C 235.922 182.520,266.439 183.015,266.809 183.600 M316.809 183.600 C 317.529 184.740,317.305 215.838,316.571 216.571 C 315.838 217.305,284.740 217.529,283.600 216.809 C 283.087 216.485,282.983 214.203,282.880 201.115 C 282.753 184.801,282.835 183.360,283.913 183.067 C 285.922 182.520,316.439 183.015,316.809 183.600 M116.809 233.600 C 117.529 234.740,117.305 265.838,116.571 266.571 C 115.838 267.305,84.740 267.529,83.600 266.809 C 83.087 266.485,82.983 264.203,82.880 251.115 C 82.753 234.801,82.835 233.360,83.913 233.067 C 85.922 232.520,116.439 233.015,116.809 233.600 M166.809 233.600 C 167.529 234.740,167.305 265.838,166.571 266.571 C 165.838 267.305,134.740 267.529,133.600 266.809 C 133.087 266.485,132.983 264.203,132.880 251.115 C 132.753 234.801,132.835 233.360,133.913 233.067 C 135.922 232.520,166.439 233.015,166.809 233.600 M216.809 233.600 C 217.529 234.740,217.305 265.838,216.571 266.571 C 215.838 267.305,184.740 267.529,183.600 266.809 C 183.087 266.485,182.983 264.203,182.880 251.115 C 182.753 234.801,182.835 233.360,183.913 233.067 C 185.922 232.520,216.439 233.015,216.809 233.600 M266.809 233.600 C 267.529 234.740,267.305 265.838,266.571 266.571 C 265.838 267.305,234.740 267.529,233.600 266.809 C 233.087 266.485,232.983 264.203,232.880 251.115 C 232.753 234.801,232.835 233.360,233.913 233.067 C 235.922 232.520,266.439 233.015,266.809 233.600 M316.809 233.600 C 317.529 234.740,317.305 265.838,316.571 266.571 C 315.838 267.305,284.740 267.529,283.600 266.809 C 283.087 266.485,282.983 264.203,282.880 251.115 C 282.753 234.801,282.835 233.360,283.913 233.067 C 285.922 232.520,316.439 233.015,316.809 233.600 M116.809 283.600 C 117.529 284.740,117.305 315.838,116.571 316.571 C 115.838 317.305,84.740 317.529,83.600 316.809 C 83.087 316.485,82.983 314.203,82.880 301.115 C 82.753 284.801,82.835 283.360,83.913 283.067 C 85.922 282.520,116.439 283.015,116.809 283.600 M166.809 283.600 C 167.529 284.740,167.305 315.838,166.571 316.571 C 165.838 317.305,134.740 317.529,133.600 316.809 C 133.087 316.485,132.983 314.203,132.880 301.115 C 132.753 284.801,132.835 283.360,133.913 283.067 C 135.922 282.520,166.439 283.015,166.809 283.600 M216.809 283.600 C 217.529 284.740,217.305 315.838,216.571 316.571 C 215.838 317.305,184.740 317.529,183.600 316.809 C 183.087 316.485,182.983 314.203,182.880 301.115 C 182.753 284.801,182.835 283.360,183.913 283.067 C 185.922 282.520,216.439 283.015,216.809 283.600 M266.809 283.600 C 267.529 284.740,267.305 315.838,266.571 316.571 C 265.838 317.305,234.740 317.529,233.600 316.809 C 233.087 316.485,232.983 314.203,232.880 301.115 C 232.753 284.801,232.835 283.360,233.913 283.067 C 235.922 282.520,266.439 283.015,266.809 283.600 M316.809 283.600 C 317.529 284.740,317.305 315.838,316.571 316.571 C 315.838 317.305,284.740 317.529,283.600 316.809 C 283.087 316.485,282.983 314.203,282.880 301.115 C 282.753 284.801,282.835 283.360,283.913 283.067 C 285.922 282.520,316.439 283.015,316.809 283.600 " stroke="none" fill="#ebf3f3" fill-rule="evenodd"></path><path id="path3" d="M84.438 77.600 C 84.657 87.325,84.856 89.437,85.609 90.000 C 85.756 90.110,86.129 90.659,86.438 91.220 C 87.871 93.823,88.705 94.828,90.140 95.680 C 90.991 96.186,91.978 96.915,92.333 97.300 C 92.688 97.685,93.270 98.000,93.626 98.000 C 93.983 98.000,95.321 98.360,96.600 98.800 C 99.528 99.807,101.044 99.807,103.600 98.800 C 104.716 98.360,105.896 98.000,106.221 98.000 C 107.580 98.000,111.694 94.429,113.412 91.759 C 115.492 88.526,115.572 87.964,115.706 75.600 L 115.800 67.000 100.000 67.000 L 84.200 67.000 84.438 77.600 M284.438 77.600 C 284.657 87.325,284.856 89.437,285.609 90.000 C 285.756 90.110,286.129 90.659,286.438 91.220 C 287.871 93.823,288.705 94.828,290.140 95.680 C 290.991 96.186,291.978 96.915,292.333 97.300 C 292.688 97.685,293.270 98.000,293.626 98.000 C 293.983 98.000,295.321 98.360,296.600 98.800 C 299.528 99.807,301.044 99.807,303.600 98.800 C 304.716 98.360,305.896 98.000,306.221 98.000 C 307.580 98.000,311.694 94.429,313.412 91.759 C 315.492 88.526,315.572 87.964,315.706 75.600 L 315.800 67.000 300.000 67.000 L 284.200 67.000 284.438 77.600 M52.800 350.951 C 52.800 351.034,53.070 351.326,53.400 351.600 C 53.891 352.008,54.000 351.980,54.000 351.449 C 54.000 351.092,53.730 350.800,53.400 350.800 C 53.070 350.800,52.800 350.868,52.800 350.951 M346.000 351.449 C 346.000 351.980,346.109 352.008,346.600 351.600 C 346.930 351.326,347.200 351.034,347.200 350.951 C 347.200 350.868,346.930 350.800,346.600 350.800 C 346.270 350.800,346.000 351.092,346.000 351.449 " stroke="none" fill="#96a3a3" fill-rule="evenodd"></path><path id="path4" d="M82.303 49.691 C 82.565 50.012,82.819 56.316,82.991 66.800 C 83.378 90.320,84.499 94.039,92.326 97.784 C 93.577 98.382,94.960 99.065,95.400 99.302 C 99.252 101.375,107.621 99.118,111.882 94.856 C 116.153 90.585,116.666 87.799,117.011 67.000 C 117.185 56.501,117.444 50.009,117.701 49.691 C 118.038 49.275,117.240 49.317,116.732 49.743 C 116.625 49.832,116.051 65.468,115.710 77.600 C 115.368 89.724,115.608 88.557,112.509 93.161 C 111.502 94.658,107.159 98.000,106.221 98.000 C 105.896 98.000,104.716 98.360,103.600 98.800 C 101.044 99.807,99.528 99.807,96.600 98.800 C 95.321 98.360,93.983 98.000,93.626 98.000 C 93.270 98.000,92.688 97.685,92.333 97.300 C 91.978 96.915,90.991 96.186,90.140 95.680 C 88.705 94.828,87.871 93.823,86.438 91.220 C 86.129 90.659,85.756 90.110,85.609 90.000 C 84.866 89.444,84.652 87.315,84.324 77.200 C 83.827 61.894,83.366 49.811,83.276 49.743 C 82.703 49.310,81.959 49.270,82.303 49.691 M317.200 49.591 C 316.561 49.994,316.403 52.957,315.710 77.600 C 315.368 89.724,315.608 88.557,312.509 93.161 C 311.502 94.658,307.159 98.000,306.221 98.000 C 305.896 98.000,304.716 98.360,303.600 98.800 C 301.044 99.807,299.528 99.807,296.600 98.800 C 295.321 98.360,293.983 98.000,293.626 98.000 C 293.270 98.000,292.688 97.685,292.333 97.300 C 291.978 96.915,290.991 96.186,290.140 95.680 C 288.705 94.828,287.871 93.823,286.438 91.220 C 286.129 90.659,285.756 90.110,285.609 90.000 C 284.866 89.444,284.652 87.315,284.324 77.200 C 283.830 61.993,283.366 49.819,283.276 49.700 C 282.717 48.962,282.646 52.095,282.907 66.099 C 283.354 90.145,284.509 94.041,292.299 97.770 C 293.565 98.376,294.960 99.065,295.400 99.302 C 299.252 101.375,307.621 99.118,311.882 94.856 C 316.142 90.597,316.664 87.779,317.011 67.200 C 317.165 58.070,317.457 50.285,317.659 49.900 C 318.081 49.100,318.031 49.067,317.200 49.591 " stroke="none" fill="#aa857f" fill-rule="evenodd"></path><path id="path5" d="M83.913 183.067 C 82.835 183.360,82.753 184.801,82.880 201.115 C 82.983 214.203,83.087 216.485,83.600 216.809 C 84.740 217.529,115.838 217.305,116.571 216.571 C 117.305 215.838,117.529 184.740,116.809 183.600 C 116.439 183.015,85.922 182.520,83.913 183.067 M133.913 183.067 C 132.835 183.360,132.753 184.801,132.880 201.115 C 132.983 214.203,133.087 216.485,133.600 216.809 C 134.740 217.529,165.838 217.305,166.571 216.571 C 167.305 215.838,167.529 184.740,166.809 183.600 C 166.439 183.015,135.922 182.520,133.913 183.067 M183.913 183.067 C 182.835 183.360,182.753 184.801,182.880 201.115 C 182.983 214.203,183.087 216.485,183.600 216.809 C 184.740 217.529,215.838 217.305,216.571 216.571 C 217.305 215.838,217.529 184.740,216.809 183.600 C 216.439 183.015,185.922 182.520,183.913 183.067 M233.913 183.067 C 232.835 183.360,232.753 184.801,232.880 201.115 C 232.983 214.203,233.087 216.485,233.600 216.809 C 234.740 217.529,265.838 217.305,266.571 216.571 C 267.305 215.838,267.529 184.740,266.809 183.600 C 266.439 183.015,235.922 182.520,233.913 183.067 M283.913 183.067 C 282.835 183.360,282.753 184.801,282.880 201.115 C 282.983 214.203,283.087 216.485,283.600 216.809 C 284.740 217.529,315.838 217.305,316.571 216.571 C 317.305 215.838,317.529 184.740,316.809 183.600 C 316.439 183.015,285.922 182.520,283.913 183.067 M115.226 184.414 C 116.180 184.925,116.460 214.580,115.520 215.520 C 114.580 216.460,84.925 216.180,84.414 215.226 C 83.639 213.778,83.868 185.609,84.662 184.731 C 85.438 183.874,113.670 183.581,115.226 184.414 M165.226 184.414 C 166.180 184.925,166.460 214.580,165.520 215.520 C 164.580 216.460,134.925 216.180,134.414 215.226 C 133.639 213.778,133.868 185.609,134.662 184.731 C 135.438 183.874,163.670 183.581,165.226 184.414 M215.226 184.414 C 216.180 184.925,216.460 214.580,215.520 215.520 C 214.580 216.460,184.925 216.180,184.414 215.226 C 183.639 213.778,183.868 185.609,184.662 184.731 C 185.438 183.874,213.670 183.581,215.226 184.414 M265.226 184.414 C 266.180 184.925,266.460 214.580,265.520 215.520 C 264.580 216.460,234.925 216.180,234.414 215.226 C 233.639 213.778,233.868 185.609,234.662 184.731 C 235.438 183.874,263.670 183.581,265.226 184.414 M315.226 184.414 C 316.180 184.925,316.460 214.580,315.520 215.520 C 314.580 216.460,284.925 216.180,284.414 215.226 C 283.639 213.778,283.868 185.609,284.662 184.731 C 285.438 183.874,313.670 183.581,315.226 184.414 M83.913 233.067 C 82.835 233.360,82.753 234.801,82.880 251.115 C 82.983 264.203,83.087 266.485,83.600 266.809 C 84.740 267.529,115.838 267.305,116.571 266.571 C 117.305 265.838,117.529 234.740,116.809 233.600 C 116.439 233.015,85.922 232.520,83.913 233.067 M133.913 233.067 C 132.835 233.360,132.753 234.801,132.880 251.115 C 132.983 264.203,133.087 266.485,133.600 266.809 C 134.740 267.529,165.838 267.305,166.571 266.571 C 167.305 265.838,167.529 234.740,166.809 233.600 C 166.439 233.015,135.922 232.520,133.913 233.067 M183.913 233.067 C 182.835 233.360,182.753 234.801,182.880 251.115 C 182.983 264.203,183.087 266.485,183.600 266.809 C 184.740 267.529,215.838 267.305,216.571 266.571 C 217.305 265.838,217.529 234.740,216.809 233.600 C 216.439 233.015,185.922 232.520,183.913 233.067 M233.913 233.067 C 232.835 233.360,232.753 234.801,232.880 251.115 C 232.983 264.203,233.087 266.485,233.600 266.809 C 234.740 267.529,265.838 267.305,266.571 266.571 C 267.305 265.838,267.529 234.740,266.809 233.600 C 266.439 233.015,235.922 232.520,233.913 233.067 M283.913 233.067 C 282.835 233.360,282.753 234.801,282.880 251.115 C 282.983 264.203,283.087 266.485,283.600 266.809 C 284.740 267.529,315.838 267.305,316.571 266.571 C 317.305 265.838,317.529 234.740,316.809 233.600 C 316.439 233.015,285.922 232.520,283.913 233.067 M115.226 234.414 C 116.180 234.925,116.460 264.580,115.520 265.520 C 114.580 266.460,84.925 266.180,84.414 265.226 C 83.639 263.778,83.868 235.609,84.662 234.731 C 85.438 233.874,113.670 233.581,115.226 234.414 M165.226 234.414 C 166.180 234.925,166.460 264.580,165.520 265.520 C 164.580 266.460,134.925 266.180,134.414 265.226 C 133.639 263.778,133.868 235.609,134.662 234.731 C 135.438 233.874,163.670 233.581,165.226 234.414 M215.226 234.414 C 216.180 234.925,216.460 264.580,215.520 265.520 C 214.580 266.460,184.925 266.180,184.414 265.226 C 183.639 263.778,183.868 235.609,184.662 234.731 C 185.438 233.874,213.670 233.581,215.226 234.414 M265.226 234.414 C 266.180 234.925,266.460 264.580,265.520 265.520 C 264.580 266.460,234.925 266.180,234.414 265.226 C 233.639 263.778,233.868 235.609,234.662 234.731 C 235.438 233.874,263.670 233.581,265.226 234.414 M315.226 234.414 C 316.180 234.925,316.460 264.580,315.520 265.520 C 314.580 266.460,284.925 266.180,284.414 265.226 C 283.639 263.778,283.868 235.609,284.662 234.731 C 285.438 233.874,313.670 233.581,315.226 234.414 M83.913 283.067 C 82.835 283.360,82.753 284.801,82.880 301.115 C 82.983 314.203,83.087 316.485,83.600 316.809 C 84.740 317.529,115.838 317.305,116.571 316.571 C 117.305 315.838,117.529 284.740,116.809 283.600 C 116.439 283.015,85.922 282.520,83.913 283.067 M133.913 283.067 C 132.835 283.360,132.753 284.801,132.880 301.115 C 132.983 314.203,133.087 316.485,133.600 316.809 C 134.740 317.529,165.838 317.305,166.571 316.571 C 167.305 315.838,167.529 284.740,166.809 283.600 C 166.439 283.015,135.922 282.520,133.913 283.067 M183.913 283.067 C 182.835 283.360,182.753 284.801,182.880 301.115 C 182.983 314.203,183.087 316.485,183.600 316.809 C 184.740 317.529,215.838 317.305,216.571 316.571 C 217.305 315.838,217.529 284.740,216.809 283.600 C 216.439 283.015,185.922 282.520,183.913 283.067 M233.913 283.067 C 232.835 283.360,232.753 284.801,232.880 301.115 C 232.983 314.203,233.087 316.485,233.600 316.809 C 234.740 317.529,265.838 317.305,266.571 316.571 C 267.305 315.838,267.529 284.740,266.809 283.600 C 266.439 283.015,235.922 282.520,233.913 283.067 M283.913 283.067 C 282.835 283.360,282.753 284.801,282.880 301.115 C 282.983 314.203,283.087 316.485,283.600 316.809 C 284.740 317.529,315.838 317.305,316.571 316.571 C 317.305 315.838,317.529 284.740,316.809 283.600 C 316.439 283.015,285.922 282.520,283.913 283.067 M115.226 284.414 C 116.180 284.925,116.460 314.580,115.520 315.520 C 114.580 316.460,84.925 316.180,84.414 315.226 C 83.639 313.778,83.868 285.609,84.662 284.731 C 85.438 283.874,113.670 283.581,115.226 284.414 M165.226 284.414 C 166.180 284.925,166.460 314.580,165.520 315.520 C 164.580 316.460,134.925 316.180,134.414 315.226 C 133.639 313.778,133.868 285.609,134.662 284.731 C 135.438 283.874,163.670 283.581,165.226 284.414 M215.226 284.414 C 216.180 284.925,216.460 314.580,215.520 315.520 C 214.580 316.460,184.925 316.180,184.414 315.226 C 183.639 313.778,183.868 285.609,184.662 284.731 C 185.438 283.874,213.670 283.581,215.226 284.414 M265.226 284.414 C 266.180 284.925,266.460 314.580,265.520 315.520 C 264.580 316.460,234.925 316.180,234.414 315.226 C 233.639 313.778,233.868 285.609,234.662 284.731 C 235.438 283.874,263.670 283.581,265.226 284.414 M315.226 284.414 C 316.180 284.925,316.460 314.580,315.520 315.520 C 314.580 316.460,284.925 316.180,284.414 315.226 C 283.639 313.778,283.868 285.609,284.662 284.731 C 285.438 283.874,313.670 283.581,315.226 284.414 M49.200 323.613 C 49.200 325.063,49.462 325.400,50.476 325.255 C 50.786 325.211,51.018 325.933,51.376 328.060 C 51.511 328.863,51.886 329.740,52.211 330.009 C 52.535 330.278,52.800 330.812,52.800 331.195 C 52.800 331.578,53.160 332.350,53.600 332.909 C 54.040 333.469,54.400 334.107,54.400 334.327 C 54.400 336.367,64.246 345.547,68.000 347.006 C 68.330 347.135,69.230 347.566,70.000 347.964 C 70.770 348.363,72.120 348.820,73.000 348.980 C 73.880 349.140,74.853 349.480,75.161 349.736 C 75.973 350.407,324.027 350.407,324.839 349.736 C 325.147 349.480,326.120 349.140,327.000 348.980 C 328.382 348.729,330.052 348.033,332.400 346.731 C 332.730 346.548,333.432 346.213,333.960 345.986 C 336.799 344.768,344.768 336.799,345.986 333.960 C 346.213 333.432,346.548 332.730,346.731 332.400 C 348.015 330.083,348.726 328.395,348.963 327.100 C 349.168 325.972,349.430 325.600,350.018 325.600 C 350.677 325.600,350.800 325.320,350.800 323.813 C 350.800 320.956,349.189 321.816,348.491 325.046 C 347.976 327.433,347.730 328.067,345.803 332.000 C 342.980 337.759,337.759 342.980,332.000 345.803 C 328.212 347.659,327.495 347.928,323.800 348.876 L 320.200 349.800 199.800 349.800 C 88.739 349.800,79.245 349.749,77.400 349.137 C 76.300 348.772,74.774 348.363,74.010 348.229 C 64.771 346.602,54.308 335.850,51.643 325.242 C 50.820 321.966,49.200 320.886,49.200 323.613 " stroke="none" fill="#ccd4d4" fill-rule="evenodd"></path><path id="path6" d="M97.200 15.297 C 97.200 15.464,97.425 15.603,97.700 15.606 C 98.048 15.610,98.026 15.722,97.627 15.975 C 97.255 16.210,97.986 16.321,99.716 16.291 C 101.180 16.265,102.294 16.161,102.192 16.059 C 102.090 15.957,102.190 15.653,102.413 15.384 C 102.728 15.005,102.185 14.905,100.010 14.944 C 98.464 14.971,97.200 15.130,97.200 15.297 M297.200 15.297 C 297.200 15.464,297.425 15.603,297.700 15.606 C 298.048 15.610,298.026 15.722,297.627 15.975 C 297.255 16.210,297.986 16.321,299.716 16.291 C 301.180 16.265,302.294 16.161,302.192 16.059 C 302.090 15.957,302.190 15.653,302.413 15.384 C 302.728 15.005,302.185 14.905,300.010 14.944 C 298.464 14.971,297.200 15.130,297.200 15.297 M88.880 18.480 C 88.616 18.744,88.400 19.138,88.400 19.356 C 88.400 19.575,88.625 19.464,88.900 19.110 C 89.175 18.757,89.760 18.383,90.200 18.280 C 90.983 18.097,90.982 18.092,90.180 18.046 C 89.729 18.021,89.144 18.216,88.880 18.480 M288.880 18.480 C 288.616 18.744,288.400 19.138,288.400 19.356 C 288.400 19.575,288.625 19.464,288.900 19.110 C 289.175 18.757,289.760 18.383,290.200 18.280 C 290.983 18.097,290.982 18.092,290.180 18.046 C 289.729 18.021,289.144 18.216,288.880 18.480 M114.800 23.753 C 114.800 24.058,115.205 24.409,115.700 24.533 C 116.534 24.744,116.547 24.720,115.879 24.221 C 115.340 23.817,115.289 23.628,115.679 23.472 C 116.015 23.337,115.952 23.252,115.500 23.232 C 115.115 23.214,114.800 23.449,114.800 23.753 M314.800 23.753 C 314.800 24.058,315.205 24.409,315.700 24.533 C 316.534 24.744,316.547 24.720,315.879 24.221 C 315.340 23.817,315.289 23.628,315.679 23.472 C 316.015 23.337,315.952 23.252,315.500 23.232 C 315.115 23.214,314.800 23.449,314.800 23.753 M82.750 27.400 C 82.723 27.510,82.675 27.735,82.644 27.900 C 82.613 28.065,82.445 28.425,82.270 28.700 C 82.053 29.042,82.218 29.200,82.790 29.200 C 83.485 29.200,83.560 29.072,83.228 28.453 C 83.008 28.042,82.942 27.592,83.081 27.453 C 83.220 27.314,83.213 27.200,83.067 27.200 C 82.920 27.200,82.778 27.290,82.750 27.400 M282.750 27.400 C 282.723 27.510,282.675 27.735,282.644 27.900 C 282.613 28.065,282.445 28.425,282.270 28.700 C 282.053 29.042,282.218 29.200,282.790 29.200 C 283.485 29.200,283.560 29.072,283.228 28.453 C 283.008 28.042,282.942 27.592,283.081 27.453 C 283.220 27.314,283.213 27.200,283.067 27.200 C 282.920 27.200,282.778 27.290,282.750 27.400 M117.467 33.300 C 117.814 35.123,118.000 35.181,118.000 33.467 C 118.000 32.660,117.825 32.000,117.610 32.000 C 117.386 32.000,117.325 32.553,117.467 33.300 M317.467 33.300 C 317.814 35.123,318.000 35.181,318.000 33.467 C 318.000 32.660,317.825 32.000,317.610 32.000 C 317.386 32.000,317.325 32.553,317.467 33.300 M82.000 41.044 C 82.000 48.527,82.050 49.065,82.800 49.707 C 83.549 50.349,83.600 50.887,83.600 58.168 C 83.600 64.703,83.700 66.043,84.229 66.571 C 85.068 67.411,114.609 67.532,115.707 66.700 C 116.276 66.269,116.384 65.070,116.484 58.071 C 116.587 50.818,116.675 49.900,117.300 49.551 C 117.786 49.280,117.986 48.708,117.954 47.680 C 117.928 46.866,117.820 46.541,117.713 46.958 C 117.584 47.462,117.422 47.560,117.231 47.250 C 116.953 46.801,116.763 47.087,115.599 49.700 C 115.379 50.195,115.154 53.930,115.099 58.000 L 115.000 65.400 100.000 65.400 L 85.000 65.400 84.753 57.600 C 84.476 48.825,84.230 47.133,83.254 47.293 C 82.672 47.388,82.592 46.633,82.525 40.458 C 82.483 36.640,82.348 33.415,82.225 33.291 C 82.101 33.168,82.000 36.657,82.000 41.044 M282.000 41.044 C 282.000 48.527,282.050 49.065,282.800 49.707 C 283.549 50.349,283.600 50.887,283.600 58.168 C 283.600 64.703,283.700 66.043,284.229 66.571 C 285.068 67.411,314.609 67.532,315.707 66.700 C 316.276 66.269,316.384 65.070,316.484 58.071 C 316.587 50.818,316.675 49.900,317.300 49.551 C 317.786 49.280,317.986 48.708,317.954 47.680 C 317.928 46.866,317.824 46.517,317.723 46.905 C 317.622 47.293,317.399 47.523,317.227 47.416 C 316.003 46.660,315.200 50.658,315.100 58.000 L 315.000 65.400 300.000 65.400 L 285.000 65.400 284.746 57.600 C 284.488 49.677,284.196 46.968,283.556 46.573 C 283.360 46.452,283.200 46.554,283.200 46.800 C 283.200 47.046,283.014 47.132,282.786 46.992 C 282.525 46.830,282.390 44.302,282.420 40.135 C 282.447 36.505,282.363 33.430,282.234 33.301 C 282.105 33.172,282.000 36.657,282.000 41.044 M350.300 341.410 C 350.194 341.965,350.226 342.492,350.371 342.582 C 350.516 342.671,350.674 342.217,350.723 341.572 C 350.833 340.135,350.564 340.031,350.300 341.410 " stroke="none" fill="#b5bcbc" fill-rule="evenodd"></path><path id="path7" d="M82.700 72.564 C 82.229 83.174,82.304 87.422,82.969 87.974 C 83.282 88.234,83.655 89.140,83.798 89.987 C 83.941 90.835,84.405 91.843,84.829 92.226 C 85.253 92.610,85.600 93.172,85.600 93.475 C 85.600 93.777,85.863 94.126,86.185 94.250 C 86.506 94.373,86.879 94.817,87.012 95.237 C 87.145 95.657,87.468 96.000,87.731 96.000 C 87.993 96.000,88.432 96.360,88.707 96.800 C 88.982 97.240,89.385 97.600,89.603 97.600 C 89.822 97.600,90.360 97.960,90.800 98.400 C 91.240 98.840,91.938 99.200,92.351 99.200 C 92.764 99.200,93.309 99.449,93.562 99.754 C 94.595 100.999,105.346 100.997,106.592 99.751 C 106.895 99.448,107.357 99.200,107.620 99.200 C 108.399 99.200,111.570 97.041,111.585 96.500 C 111.593 96.225,111.858 96.000,112.173 96.000 C 112.488 96.000,112.860 95.640,113.000 95.200 C 113.140 94.760,113.391 94.400,113.560 94.400 C 114.063 94.400,116.400 90.549,116.400 89.721 C 116.400 89.298,116.664 88.604,116.987 88.176 C 117.641 87.313,117.766 77.944,117.220 70.800 C 116.974 67.589,116.919 68.289,116.865 75.321 C 116.741 91.273,113.826 96.466,103.201 99.670 C 101.567 100.163,96.561 99.927,95.400 99.302 C 94.960 99.065,93.577 98.382,92.326 97.784 C 85.365 94.453,83.597 90.136,83.240 75.600 L 83.000 65.800 82.700 72.564 M282.700 72.564 C 282.229 83.174,282.304 87.422,282.969 87.974 C 283.282 88.234,283.655 89.140,283.798 89.987 C 283.941 90.835,284.405 91.843,284.829 92.226 C 285.253 92.610,285.600 93.172,285.600 93.475 C 285.600 93.777,285.863 94.126,286.185 94.250 C 286.506 94.373,286.879 94.817,287.012 95.237 C 287.145 95.657,287.468 96.000,287.731 96.000 C 287.993 96.000,288.432 96.360,288.707 96.800 C 288.982 97.240,289.385 97.600,289.603 97.600 C 289.822 97.600,290.360 97.960,290.800 98.400 C 291.240 98.840,291.938 99.200,292.351 99.200 C 292.764 99.200,293.309 99.449,293.562 99.754 C 294.595 100.999,305.346 100.997,306.592 99.751 C 306.895 99.448,307.357 99.200,307.620 99.200 C 308.399 99.200,311.570 97.041,311.585 96.500 C 311.593 96.225,311.858 96.000,312.173 96.000 C 312.488 96.000,312.860 95.640,313.000 95.200 C 313.140 94.760,313.391 94.400,313.560 94.400 C 314.063 94.400,316.400 90.549,316.400 89.721 C 316.400 89.298,316.664 88.604,316.987 88.176 C 317.641 87.313,317.766 77.944,317.220 70.800 C 316.974 67.589,316.919 68.289,316.865 75.321 C 316.741 91.273,313.826 96.466,303.201 99.670 C 301.567 100.163,296.561 99.927,295.400 99.302 C 294.960 99.065,293.577 98.382,292.326 97.784 C 285.365 94.453,283.597 90.136,283.240 75.600 L 283.000 65.800 282.700 72.564 " stroke="none" fill="#ac645c" fill-rule="evenodd"></path><path id="path8" d="M124.500 150.300 C 166.025 150.356,233.975 150.356,275.500 150.300 C 317.025 150.244,283.050 150.198,200.000 150.198 C 116.950 150.198,82.975 150.244,124.500 150.300 M84.662 184.731 C 83.868 185.609,83.639 213.778,84.414 215.226 C 84.925 216.180,114.580 216.460,115.520 215.520 C 116.460 214.580,116.180 184.925,115.226 184.414 C 113.670 183.581,85.438 183.874,84.662 184.731 M134.662 184.731 C 133.868 185.609,133.639 213.778,134.414 215.226 C 134.925 216.180,164.580 216.460,165.520 215.520 C 166.460 214.580,166.180 184.925,165.226 184.414 C 163.670 183.581,135.438 183.874,134.662 184.731 M184.662 184.731 C 183.868 185.609,183.639 213.778,184.414 215.226 C 184.925 216.180,214.580 216.460,215.520 215.520 C 216.460 214.580,216.180 184.925,215.226 184.414 C 213.670 183.581,185.438 183.874,184.662 184.731 M234.662 184.731 C 233.868 185.609,233.639 213.778,234.414 215.226 C 234.925 216.180,264.580 216.460,265.520 215.520 C 266.460 214.580,266.180 184.925,265.226 184.414 C 263.670 183.581,235.438 183.874,234.662 184.731 M284.662 184.731 C 283.868 185.609,283.639 213.778,284.414 215.226 C 284.925 216.180,314.580 216.460,315.520 215.520 C 316.460 214.580,316.180 184.925,315.226 184.414 C 313.670 183.581,285.438 183.874,284.662 184.731 M115.200 200.000 L 115.200 215.200 100.000 215.200 L 84.800 215.200 84.800 200.267 C 84.800 192.053,84.920 185.213,85.067 185.067 C 85.213 184.920,92.053 184.800,100.267 184.800 L 115.200 184.800 115.200 200.000 M165.200 200.000 L 165.200 215.200 150.000 215.200 L 134.800 215.200 134.800 200.267 C 134.800 192.053,134.920 185.213,135.067 185.067 C 135.213 184.920,142.053 184.800,150.267 184.800 L 165.200 184.800 165.200 200.000 M215.200 200.000 L 215.200 215.200 200.000 215.200 L 184.800 215.200 184.800 200.267 C 184.800 192.053,184.920 185.213,185.067 185.067 C 185.213 184.920,192.053 184.800,200.267 184.800 L 215.200 184.800 215.200 200.000 M265.200 200.000 L 265.200 215.200 250.000 215.200 L 234.800 215.200 234.800 200.267 C 234.800 192.053,234.920 185.213,235.067 185.067 C 235.213 184.920,242.053 184.800,250.267 184.800 L 265.200 184.800 265.200 200.000 M315.200 200.000 L 315.200 215.200 300.000 215.200 L 284.800 215.200 284.800 200.267 C 284.800 192.053,284.920 185.213,285.067 185.067 C 285.213 184.920,292.053 184.800,300.267 184.800 L 315.200 184.800 315.200 200.000 M84.662 234.731 C 83.868 235.609,83.639 263.778,84.414 265.226 C 84.925 266.180,114.580 266.460,115.520 265.520 C 116.460 264.580,116.180 234.925,115.226 234.414 C 113.670 233.581,85.438 233.874,84.662 234.731 M134.662 234.731 C 133.868 235.609,133.639 263.778,134.414 265.226 C 134.925 266.180,164.580 266.460,165.520 265.520 C 166.460 264.580,166.180 234.925,165.226 234.414 C 163.670 233.581,135.438 233.874,134.662 234.731 M184.662 234.731 C 183.868 235.609,183.639 263.778,184.414 265.226 C 184.925 266.180,214.580 266.460,215.520 265.520 C 216.460 264.580,216.180 234.925,215.226 234.414 C 213.670 233.581,185.438 233.874,184.662 234.731 M234.662 234.731 C 233.868 235.609,233.639 263.778,234.414 265.226 C 234.925 266.180,264.580 266.460,265.520 265.520 C 266.460 264.580,266.180 234.925,265.226 234.414 C 263.670 233.581,235.438 233.874,234.662 234.731 M284.662 234.731 C 283.868 235.609,283.639 263.778,284.414 265.226 C 284.925 266.180,314.580 266.460,315.520 265.520 C 316.460 264.580,316.180 234.925,315.226 234.414 C 313.670 233.581,285.438 233.874,284.662 234.731 M115.200 250.000 L 115.200 265.200 100.000 265.200 L 84.800 265.200 84.800 250.267 C 84.800 242.053,84.920 235.213,85.067 235.067 C 85.213 234.920,92.053 234.800,100.267 234.800 L 115.200 234.800 115.200 250.000 M165.200 250.000 L 165.200 265.200 150.000 265.200 L 134.800 265.200 134.800 250.267 C 134.800 242.053,134.920 235.213,135.067 235.067 C 135.213 234.920,142.053 234.800,150.267 234.800 L 165.200 234.800 165.200 250.000 M215.200 250.000 L 215.200 265.200 200.000 265.200 L 184.800 265.200 184.800 250.267 C 184.800 242.053,184.920 235.213,185.067 235.067 C 185.213 234.920,192.053 234.800,200.267 234.800 L 215.200 234.800 215.200 250.000 M265.200 250.000 L 265.200 265.200 250.000 265.200 L 234.800 265.200 234.800 250.267 C 234.800 242.053,234.920 235.213,235.067 235.067 C 235.213 234.920,242.053 234.800,250.267 234.800 L 265.200 234.800 265.200 250.000 M315.200 250.000 L 315.200 265.200 300.000 265.200 L 284.800 265.200 284.800 250.267 C 284.800 242.053,284.920 235.213,285.067 235.067 C 285.213 234.920,292.053 234.800,300.267 234.800 L 315.200 234.800 315.200 250.000 M84.662 284.731 C 83.868 285.609,83.639 313.778,84.414 315.226 C 84.925 316.180,114.580 316.460,115.520 315.520 C 116.460 314.580,116.180 284.925,115.226 284.414 C 113.670 283.581,85.438 283.874,84.662 284.731 M134.662 284.731 C 133.868 285.609,133.639 313.778,134.414 315.226 C 134.925 316.180,164.580 316.460,165.520 315.520 C 166.460 314.580,166.180 284.925,165.226 284.414 C 163.670 283.581,135.438 283.874,134.662 284.731 M184.662 284.731 C 183.868 285.609,183.639 313.778,184.414 315.226 C 184.925 316.180,214.580 316.460,215.520 315.520 C 216.460 314.580,216.180 284.925,215.226 284.414 C 213.670 283.581,185.438 283.874,184.662 284.731 M234.662 284.731 C 233.868 285.609,233.639 313.778,234.414 315.226 C 234.925 316.180,264.580 316.460,265.520 315.520 C 266.460 314.580,266.180 284.925,265.226 284.414 C 263.670 283.581,235.438 283.874,234.662 284.731 M284.662 284.731 C 283.868 285.609,283.639 313.778,284.414 315.226 C 284.925 316.180,314.580 316.460,315.520 315.520 C 316.460 314.580,316.180 284.925,315.226 284.414 C 313.670 283.581,285.438 283.874,284.662 284.731 M115.200 300.000 L 115.200 315.200 100.000 315.200 L 84.800 315.200 84.800 300.267 C 84.800 292.053,84.920 285.213,85.067 285.067 C 85.213 284.920,92.053 284.800,100.267 284.800 L 115.200 284.800 115.200 300.000 M165.200 300.000 L 165.200 315.200 150.000 315.200 L 134.800 315.200 134.800 300.267 C 134.800 292.053,134.920 285.213,135.067 285.067 C 135.213 284.920,142.053 284.800,150.267 284.800 L 165.200 284.800 165.200 300.000 M215.200 300.000 L 215.200 315.200 200.000 315.200 L 184.800 315.200 184.800 300.267 C 184.800 292.053,184.920 285.213,185.067 285.067 C 185.213 284.920,192.053 284.800,200.267 284.800 L 215.200 284.800 215.200 300.000 M265.200 300.000 L 265.200 315.200 250.000 315.200 L 234.800 315.200 234.800 300.267 C 234.800 292.053,234.920 285.213,235.067 285.067 C 235.213 284.920,242.053 284.800,250.267 284.800 L 265.200 284.800 265.200 300.000 M315.200 300.000 L 315.200 315.200 300.000 315.200 L 284.800 315.200 284.800 300.267 C 284.800 292.053,284.920 285.213,285.067 285.067 C 285.213 284.920,292.053 284.800,300.267 284.800 L 315.200 284.800 315.200 300.000 M49.275 326.123 C 49.353 326.671,49.643 326.960,50.048 326.894 C 50.520 326.818,50.764 327.211,50.944 328.342 C 51.081 329.197,51.464 330.122,51.796 330.397 C 52.128 330.673,52.400 331.212,52.400 331.595 C 52.400 331.978,52.733 332.721,53.139 333.246 C 53.545 333.771,53.999 334.695,54.147 335.300 C 54.294 335.905,54.682 336.400,55.008 336.400 C 55.333 336.400,55.600 336.664,55.600 336.986 C 55.600 337.308,55.960 337.765,56.400 338.000 C 56.840 338.235,57.200 338.591,57.200 338.791 C 57.200 339.316,60.713 342.800,61.243 342.800 C 61.489 342.800,60.797 341.945,59.705 340.900 C 57.501 338.791,54.400 334.949,54.400 334.327 C 54.400 334.107,54.040 333.469,53.600 332.909 C 53.160 332.350,52.800 331.578,52.800 331.195 C 52.800 330.812,52.535 330.278,52.211 330.009 C 51.886 329.740,51.511 328.863,51.376 328.060 C 50.968 325.637,50.834 325.373,49.975 325.308 C 49.341 325.260,49.179 325.449,49.275 326.123 M348.969 327.100 C 348.823 327.925,348.365 329.161,347.951 329.847 C 347.538 330.533,347.200 331.329,347.200 331.616 C 347.200 331.902,346.901 332.467,346.536 332.871 C 345.699 333.795,346.077 334.266,346.952 333.390 C 347.309 333.034,347.600 332.346,347.600 331.860 C 347.600 331.375,347.960 330.670,348.400 330.293 C 348.864 329.896,349.200 329.113,349.200 328.431 C 349.200 327.605,349.439 327.178,350.000 327.000 C 351.029 326.673,351.043 325.600,350.018 325.600 C 349.429 325.600,349.171 325.969,348.969 327.100 M344.400 336.309 C 342.310 339.044,339.704 341.686,336.849 343.964 C 334.491 345.846,334.176 346.368,335.767 345.757 C 336.115 345.624,336.400 345.264,336.400 344.957 C 336.400 344.651,336.664 344.400,336.986 344.400 C 337.308 344.400,337.765 344.040,338.000 343.600 C 338.235 343.160,338.625 342.800,338.867 342.800 C 339.108 342.800,340.092 342.014,341.053 341.053 C 342.014 340.092,342.800 339.108,342.800 338.867 C 342.800 338.625,343.160 338.235,343.600 338.000 C 344.040 337.765,344.400 337.308,344.400 336.986 C 344.400 336.664,344.658 336.400,344.973 336.400 C 345.487 336.400,346.275 334.934,345.937 334.608 C 345.861 334.536,345.170 335.301,344.400 336.309 M62.000 343.432 C 62.000 343.758,62.315 344.143,62.700 344.286 C 63.085 344.430,63.635 344.874,63.923 345.274 C 64.210 345.673,64.767 346.000,65.161 346.000 C 65.554 346.000,66.202 346.360,66.600 346.800 C 66.998 347.240,67.673 347.600,68.099 347.600 C 68.525 347.600,69.331 347.960,69.891 348.400 C 70.450 348.840,71.340 349.200,71.868 349.200 C 72.396 349.200,73.309 349.515,73.896 349.900 C 75.558 350.989,325.086 350.989,326.290 349.900 C 326.715 349.515,327.636 349.200,328.335 349.200 C 329.113 349.200,329.874 348.889,330.293 348.400 C 330.670 347.960,331.375 347.600,331.860 347.600 C 332.346 347.600,333.034 347.309,333.390 346.952 C 334.266 346.077,333.795 345.699,332.871 346.536 C 332.467 346.901,331.902 347.200,331.616 347.200 C 331.329 347.200,330.533 347.538,329.847 347.951 C 329.161 348.365,327.880 348.831,327.000 348.987 C 326.120 349.144,325.147 349.480,324.839 349.736 C 324.027 350.407,75.973 350.407,75.161 349.736 C 74.853 349.480,73.880 349.140,73.000 348.980 C 71.620 348.729,70.072 348.086,67.600 346.736 C 67.270 346.556,66.370 346.065,65.600 345.645 C 64.830 345.226,63.705 344.422,63.100 343.860 C 62.320 343.136,62.000 343.011,62.000 343.432 M349.200 343.449 C 349.200 343.980,349.309 344.008,349.800 343.600 C 350.130 343.326,350.400 343.034,350.400 342.951 C 350.400 342.868,350.130 342.800,349.800 342.800 C 349.470 342.800,349.200 343.092,349.200 343.449 M339.416 358.773 C 339.271 359.008,339.298 359.203,339.476 359.206 C 339.654 359.209,339.530 359.387,339.200 359.600 C 338.780 359.871,338.754 359.990,339.113 359.994 C 339.394 359.997,339.732 359.722,339.862 359.383 C 340.145 358.646,339.793 358.165,339.416 358.773 M324.037 366.377 C 323.731 366.566,323.630 366.925,323.804 367.207 C 324.034 367.578,324.207 367.531,324.492 367.021 C 324.955 366.194,324.766 365.927,324.037 366.377 " stroke="none" fill="#c4c8cc" fill-rule="evenodd"></path></g></svg>