<?xml version="1.0" standalone="no"?>
<!DOCTYPE svg PUBLIC "-//W3C//DTD SVG 20010904//EN"
 "http://www.w3.org/TR/2001/REC-SVG-20010904/DTD/svg10.dtd">
<svg version="1.0" xmlns="http://www.w3.org/2000/svg"
 width="234.000000pt" height="655.000000pt" viewBox="0 0 234.000000 655.000000"
 preserveAspectRatio="xMidYMid meet">

<g transform="translate(0.000000,655.000000) scale(0.100000,-0.100000)"
fill="#000000" stroke="none">
<path d="M1021 6209 c-292 -57 -535 -280 -610 -560 -31 -115 -35 -191 -17
-320 9 -63 91 -762 181 -1554 91 -792 170 -1465 175 -1495 15 -85 63 -171 125
-229 135 -123 325 -153 490 -77 109 50 207 172 234 291 6 28 88 716 181 1530
94 814 175 1504 180 1534 41 225 -33 462 -198 642 -152 165 -354 250 -587 248
-60 -1 -130 -5 -154 -10z"/>
<path d="M1055 1519 c-73 -17 -198 -86 -261 -143 -80 -72 -130 -149 -168 -256
-26 -74 -30 -99 -30 -190 0 -121 16 -188 72 -294 98 -187 317 -316 536 -316
223 1 436 132 536 330 48 96 64 165 64 280 0 91 -4 116 -30 190 -17 47 -47
111 -68 142 -77 117 -218 218 -352 253 -65 17 -234 19 -299 4z"/>
</g>
</svg>
