<svg id="svg" version="1.1" xmlns="http://www.w3.org/2000/svg" xmlns:xlink="http://www.w3.org/1999/xlink" width="400" height="400" viewBox="0, 0, 400,400"><g id="svgg"><path id="path0" d="M104.870 141.726 C 104.053 142.595,104.000 143.034,104.000 148.926 L 104.000 155.200 200.900 155.205 C 303.191 155.210,299.623 155.149,303.088 156.942 C 307.266 159.103,309.317 162.880,310.396 170.400 C 310.601 171.830,310.964 174.260,311.203 175.800 C 311.442 177.340,311.785 179.590,311.966 180.800 C 312.166 182.140,312.316 175.161,312.348 162.955 L 312.400 142.909 311.345 141.855 L 310.291 140.800 208.015 140.800 L 105.739 140.800 104.870 141.726 " stroke="none" fill="#ecebeb" fill-rule="evenodd"></path><path id="path1" d="M78.801 155.609 C 79.421 156.001,79.109 156.144,77.900 156.021 C 77.515 155.982,77.200 156.162,77.200 156.421 C 77.200 156.707,76.811 156.819,76.212 156.704 C 75.669 156.601,75.325 156.679,75.449 156.879 C 75.754 157.373,74.001 158.848,73.487 158.530 C 73.261 158.390,73.188 158.458,73.325 158.679 C 73.462 158.901,73.316 159.424,73.000 159.841 C 72.684 160.258,72.407 161.140,72.385 161.800 C 72.349 162.836,72.297 162.891,72.000 162.200 C 71.520 161.082,71.332 163.526,71.677 166.400 C 71.743 166.950,71.928 167.498,72.088 167.617 C 72.248 167.737,72.411 168.817,72.450 170.017 C 72.490 171.218,72.695 172.314,72.908 172.453 C 73.120 172.592,73.294 173.807,73.294 175.153 C 73.294 176.499,73.453 177.600,73.647 177.600 C 73.841 177.600,74.000 178.680,74.000 180.000 C 74.000 181.333,74.178 182.400,74.400 182.400 C 74.620 182.400,74.800 183.289,74.800 184.376 C 74.800 185.463,74.980 186.464,75.200 186.600 C 75.420 186.736,75.597 187.062,75.594 187.324 C 75.590 187.610,75.433 187.561,75.200 187.200 C 74.869 186.687,74.811 186.702,74.806 187.300 C 74.803 187.685,74.980 188.000,75.200 188.000 C 75.420 188.000,75.600 188.450,75.600 189.000 C 75.600 189.550,75.420 190.000,75.200 190.000 C 74.980 190.000,74.800 190.191,74.800 190.424 C 74.800 190.657,74.980 190.736,75.200 190.600 C 75.596 190.356,75.764 190.893,75.621 191.940 C 75.580 192.237,75.739 192.362,75.973 192.217 C 76.255 192.042,76.416 192.742,76.447 194.276 C 76.504 197.070,76.524 196.818,76.176 197.800 L 75.892 198.600 76.564 197.800 C 77.203 197.040,77.225 197.137,77.021 199.747 C 76.848 201.954,76.907 202.409,77.319 202.067 C 77.716 201.737,77.854 201.919,77.926 202.867 C 78.004 203.886,77.900 204.051,77.310 203.846 C 76.703 203.634,76.712 203.685,77.376 204.199 C 78.089 204.751,77.952 205.000,77.032 204.825 C 76.830 204.786,76.897 205.035,77.181 205.377 C 77.465 205.720,77.991 206.014,78.349 206.032 C 78.764 206.052,78.818 206.136,78.500 206.265 C 78.225 206.376,78.000 206.642,78.000 206.857 C 78.000 207.072,78.188 207.131,78.418 206.989 C 78.692 206.820,78.796 207.349,78.718 208.514 C 78.628 209.880,78.459 210.256,78.000 210.119 C 77.632 210.009,77.678 210.118,78.118 210.399 C 78.589 210.701,78.750 211.127,78.587 211.640 C 78.420 212.167,78.512 212.384,78.870 212.310 C 79.262 212.229,79.400 212.804,79.400 214.515 C 79.400 215.788,79.590 216.958,79.821 217.115 C 80.052 217.272,80.227 218.300,80.211 219.400 C 80.194 220.500,80.356 221.523,80.572 221.674 C 80.788 221.825,80.962 223.119,80.960 224.550 C 80.958 226.267,81.100 227.065,81.378 226.899 C 81.610 226.760,81.545 226.961,81.232 227.346 C 80.795 227.884,80.784 228.017,81.186 227.923 C 81.547 227.838,81.756 228.417,81.864 229.800 C 82.094 232.745,82.105 232.800,82.459 232.800 C 82.638 232.800,82.677 233.584,82.546 234.543 C 82.370 235.825,82.488 236.562,82.991 237.330 C 83.506 238.117,83.606 238.783,83.394 240.037 C 83.213 241.108,83.255 241.613,83.511 241.455 C 83.729 241.320,83.996 241.668,84.103 242.228 C 84.258 243.037,84.164 243.200,83.649 243.022 C 83.089 242.829,83.093 242.871,83.681 243.329 C 84.114 243.667,84.280 244.174,84.136 244.724 C 84.011 245.199,84.048 245.906,84.216 246.294 C 84.385 246.682,84.487 247.299,84.442 247.665 C 84.398 248.030,84.534 248.436,84.746 248.566 C 84.957 248.697,85.042 249.362,84.934 250.044 C 84.802 250.885,84.881 251.197,85.179 251.013 C 85.722 250.677,85.559 251.678,85.000 252.108 C 84.748 252.301,84.835 252.598,85.235 252.908 C 85.887 253.413,85.823 254.585,85.166 254.179 C 84.577 253.815,84.745 254.402,85.423 255.080 C 85.766 255.423,85.948 255.959,85.828 256.272 C 85.707 256.588,85.786 256.733,86.005 256.597 C 86.222 256.463,86.400 256.543,86.400 256.776 C 86.400 257.009,86.220 257.200,86.000 257.200 C 85.780 257.200,85.600 257.391,85.600 257.624 C 85.600 257.857,85.796 257.926,86.035 257.779 C 86.323 257.600,86.429 257.980,86.348 258.910 C 86.281 259.693,86.475 260.608,86.788 260.986 C 87.269 261.566,87.267 261.712,86.774 262.024 C 86.282 262.336,86.285 262.389,86.800 262.393 C 87.278 262.398,87.387 262.928,87.334 265.002 C 87.293 266.637,87.417 267.513,87.666 267.359 C 87.900 267.215,88.025 267.583,87.971 268.257 C 87.806 270.313,87.989 271.654,88.400 271.400 C 88.651 271.245,88.800 272.129,88.800 273.776 C 88.800 275.219,88.961 276.400,89.159 276.400 C 89.356 276.400,89.529 277.409,89.544 278.641 C 89.559 279.874,89.796 281.154,90.072 281.486 C 90.387 281.867,90.546 283.146,90.500 284.945 C 90.450 286.880,90.549 287.607,90.807 287.200 C 91.096 286.744,91.189 286.893,91.194 287.820 C 91.197 288.491,90.984 289.256,90.720 289.520 C 90.347 289.893,90.347 290.000,90.720 290.000 C 90.984 290.000,91.200 290.450,91.200 291.000 C 91.200 291.550,91.394 292.000,91.631 292.000 C 91.885 292.000,92.014 292.649,91.947 293.583 C 91.884 294.454,91.989 295.309,92.180 295.483 C 92.376 295.661,92.385 295.553,92.202 295.238 C 91.974 294.845,92.026 294.769,92.373 294.983 C 92.646 295.152,92.784 295.617,92.680 296.015 C 92.550 296.513,92.664 296.673,93.045 296.527 C 93.410 296.387,93.600 296.603,93.600 297.157 C 93.600 297.733,93.853 298.000,94.400 298.000 C 94.840 298.000,95.200 298.230,95.200 298.511 C 95.200 299.324,96.918 300.584,97.862 300.463 C 98.336 300.402,98.841 300.543,98.985 300.775 C 99.504 301.615,322.009 301.340,322.628 300.499 C 323.118 299.834,323.156 299.834,323.414 300.500 C 323.563 300.885,323.857 301.200,324.066 301.200 C 324.276 301.200,324.344 301.032,324.217 300.827 C 323.912 300.335,325.607 299.163,326.165 299.481 C 326.404 299.617,326.476 299.590,326.324 299.422 C 325.992 299.052,326.873 298.007,327.300 298.266 C 327.465 298.365,327.600 297.933,327.600 297.304 C 327.600 296.675,327.825 295.918,328.100 295.621 C 328.506 295.184,328.488 295.142,328.000 295.400 C 327.512 295.658,327.494 295.616,327.900 295.179 C 328.493 294.540,328.576 290.925,328.001 290.733 C 327.782 290.660,327.430 289.340,327.219 287.800 C 327.008 286.260,326.458 282.570,325.996 279.600 C 325.535 276.630,324.994 273.030,324.794 271.600 C 324.435 269.030,324.048 266.454,323.200 261.000 C 322.961 259.460,322.594 256.940,322.386 255.400 C 322.177 253.860,321.841 251.520,321.638 250.200 C 321.436 248.880,320.704 243.840,320.012 239.000 C 319.321 234.160,318.417 228.040,318.004 225.400 C 317.591 222.760,317.057 219.160,316.817 217.400 C 316.578 215.640,316.215 213.120,316.011 211.800 C 315.807 210.480,315.460 208.230,315.239 206.800 C 315.018 205.370,314.638 202.670,314.394 200.800 C 314.150 198.930,313.787 196.500,313.588 195.400 C 313.389 194.300,313.016 191.870,312.760 190.000 C 312.504 188.130,312.162 186.420,312.001 186.200 C 311.840 185.980,311.577 184.720,311.416 183.400 C 311.255 182.080,310.963 179.920,310.766 178.600 C 310.570 177.280,310.293 174.891,310.151 173.291 C 310.010 171.691,309.738 170.285,309.547 170.167 C 309.356 170.049,309.200 168.973,309.200 167.776 C 309.200 166.579,309.020 165.600,308.800 165.600 C 308.580 165.600,308.400 165.257,308.400 164.838 C 308.400 163.111,305.992 159.631,303.800 158.191 C 300.547 156.054,308.545 156.225,196.200 155.889 C 139.000 155.717,89.050 155.499,85.201 155.404 C 80.710 155.292,78.417 155.366,78.801 155.609 " stroke="none" fill="#f4cb63" fill-rule="evenodd"></path><path id="path2" d="M100.000 99.177 C 99.670 99.359,98.860 99.748,98.200 100.042 C 96.601 100.753,92.226 105.292,92.690 105.757 C 92.813 105.880,92.720 106.215,92.483 106.500 C 92.246 106.786,91.987 107.504,91.908 108.095 C 91.828 108.686,91.637 109.297,91.482 109.452 C 91.327 109.607,91.200 119.963,91.200 132.467 L 91.200 155.200 97.000 155.200 L 102.800 155.200 102.800 149.174 C 102.800 142.459,103.398 140.400,105.348 140.400 C 105.681 140.400,106.064 140.220,106.200 140.000 C 106.543 139.446,309.857 139.446,310.200 140.000 C 310.336 140.220,310.719 140.400,311.052 140.400 C 313.025 140.400,312.986 139.914,313.201 167.171 C 313.311 181.157,313.559 192.845,313.752 193.145 C 313.945 193.444,314.259 194.929,314.451 196.445 C 314.793 199.143,315.320 202.805,316.000 207.200 C 316.530 210.623,317.164 214.941,317.573 217.900 C 317.778 219.385,318.027 220.960,318.126 221.400 C 318.226 221.840,318.452 223.550,318.629 225.200 C 318.806 226.850,318.975 228.290,319.005 228.400 C 319.059 228.597,319.503 231.441,319.848 233.800 C 319.945 234.460,320.195 235.990,320.405 237.200 C 320.614 238.410,320.984 240.930,321.226 242.800 C 321.468 244.670,321.831 247.370,322.033 248.800 C 322.234 250.230,322.501 252.480,322.625 253.800 C 322.748 255.120,323.006 256.560,323.197 257.000 C 323.533 257.774,323.783 259.563,324.260 264.600 C 324.385 265.920,324.647 267.171,324.843 267.380 C 325.040 267.589,325.200 268.793,325.200 270.056 C 325.200 271.319,325.380 272.464,325.600 272.600 C 325.820 272.736,326.000 273.996,326.000 275.400 C 326.000 276.804,326.180 278.064,326.400 278.200 C 326.620 278.336,326.800 279.506,326.800 280.800 C 326.800 282.094,326.980 283.264,327.200 283.400 C 327.420 283.536,327.600 284.717,327.600 286.024 C 327.600 287.341,327.778 288.400,328.000 288.400 C 328.265 288.400,328.400 261.667,328.400 209.000 C 328.400 156.333,328.265 129.600,328.000 129.600 C 327.780 129.600,327.600 129.240,327.600 128.800 C 327.600 128.360,327.420 128.000,327.200 128.000 C 326.980 128.000,326.800 127.814,326.800 127.587 C 326.800 127.069,324.509 124.800,323.986 124.800 C 323.774 124.800,323.600 124.620,323.600 124.400 C 323.600 124.180,323.240 124.000,322.800 124.000 C 322.360 124.000,322.000 123.820,322.000 123.600 C 322.000 123.335,299.565 123.199,255.500 123.197 L 189.000 123.194 188.500 122.117 C 188.225 121.525,188.000 120.806,188.000 120.520 C 188.000 120.234,187.820 120.000,187.600 120.000 C 187.380 120.000,187.200 119.561,187.200 119.024 C 187.200 118.487,187.056 117.958,186.879 117.849 C 186.703 117.740,186.307 116.728,186.000 115.600 C 185.693 114.472,185.297 113.460,185.121 113.351 C 184.944 113.242,184.800 112.703,184.800 112.153 C 184.800 111.588,184.626 111.260,184.400 111.400 C 184.167 111.544,184.000 111.137,184.000 110.424 C 184.000 109.751,183.820 109.200,183.600 109.200 C 183.380 109.200,183.200 108.761,183.200 108.224 C 183.200 107.687,183.020 107.136,182.800 107.000 C 182.580 106.864,182.400 106.443,182.400 106.065 C 182.400 105.686,182.040 105.117,181.600 104.800 C 181.160 104.483,180.800 104.009,180.800 103.747 C 180.800 103.004,177.071 100.106,176.365 100.300 C 176.164 100.355,176.000 100.220,176.000 100.000 C 176.000 99.780,175.640 99.600,175.200 99.600 C 174.760 99.600,174.400 99.420,174.400 99.200 C 174.400 98.707,100.895 98.685,100.000 99.177 " stroke="none" fill="#ecb44c" fill-rule="evenodd"></path><path id="path3" d="M157.468 140.300 C 185.225 140.357,230.765 140.357,258.668 140.300 C 286.571 140.243,263.860 140.197,208.200 140.197 C 152.540 140.197,129.711 140.243,157.468 140.300 M311.806 141.312 C 312.192 141.924,312.609 142.324,312.732 142.201 C 312.855 142.078,312.539 141.578,312.030 141.089 L 311.104 140.200 311.806 141.312 M103.067 143.067 C 102.920 143.213,102.800 145.998,102.800 149.256 L 102.800 155.178 97.100 155.301 L 91.400 155.424 97.281 155.512 L 103.162 155.600 103.281 149.199 C 103.346 145.679,103.385 142.799,103.367 142.799 C 103.348 142.800,103.213 142.920,103.067 143.067 M77.200 155.575 C 77.200 155.781,77.548 155.924,77.972 155.892 C 78.397 155.860,78.656 155.691,78.549 155.517 C 78.275 155.073,77.200 155.120,77.200 155.575 M75.304 156.594 C 74.991 156.949,74.954 157.248,75.204 157.402 C 75.422 157.537,75.600 157.457,75.600 157.224 C 75.600 156.991,75.881 156.800,76.224 156.800 C 76.567 156.800,76.736 156.620,76.600 156.400 C 76.268 155.863,75.899 155.918,75.304 156.594 M71.600 168.576 C 71.600 169.113,71.780 169.664,72.000 169.800 C 72.233 169.944,72.400 169.537,72.400 168.824 C 72.400 168.151,72.220 167.600,72.000 167.600 C 71.780 167.600,71.600 168.039,71.600 168.576 M72.400 174.600 C 72.400 174.930,72.580 175.200,72.800 175.200 C 73.020 175.200,73.200 174.930,73.200 174.600 C 73.200 174.270,73.020 174.000,72.800 174.000 C 72.580 174.000,72.400 174.270,72.400 174.600 M73.378 178.835 C 73.231 179.074,73.310 179.470,73.555 179.715 C 73.882 180.042,74.000 179.926,74.000 179.280 C 74.000 178.314,73.792 178.165,73.378 178.835 M74.000 184.576 C 74.000 184.893,74.180 185.264,74.400 185.400 C 74.620 185.536,74.800 185.277,74.800 184.824 C 74.800 184.371,74.620 184.000,74.400 184.000 C 74.180 184.000,74.000 184.259,74.000 184.576 M312.460 185.923 C 312.402 187.576,312.832 191.151,313.597 195.400 C 313.796 196.500,314.165 199.020,314.417 201.000 C 314.996 205.533,315.500 208.119,315.557 206.848 C 315.581 206.324,315.331 204.074,315.001 201.848 C 313.908 194.457,312.835 186.924,312.659 185.400 C 312.559 184.542,312.503 184.692,312.460 185.923 M74.900 189.000 C 74.900 189.550,75.055 190.000,75.246 190.000 C 75.436 190.000,75.554 189.550,75.508 189.000 C 75.463 188.450,75.307 188.000,75.163 188.000 C 75.018 188.000,74.900 188.450,74.900 189.000 M76.488 198.800 C 76.506 199.460,76.667 200.000,76.845 200.000 C 77.022 200.000,77.130 199.460,77.084 198.801 C 76.974 197.237,76.443 197.236,76.488 198.800 M315.687 209.200 C 315.683 209.970,315.824 211.050,316.000 211.600 C 316.448 212.999,316.448 210.761,316.000 209.000 L 315.695 207.800 315.687 209.200 M78.653 213.400 C 78.958 214.812,79.050 214.966,79.325 214.522 C 79.438 214.339,79.274 213.742,78.962 213.195 L 78.393 212.200 78.653 213.400 M316.477 214.400 C 316.454 216.186,317.888 224.591,317.952 223.046 C 317.997 221.957,317.671 219.571,316.853 215.000 C 316.549 213.302,316.492 213.212,316.477 214.400 M79.361 217.931 C 79.439 218.663,79.698 219.458,79.937 219.697 C 80.249 220.009,80.313 219.811,80.164 218.992 C 79.837 217.189,79.192 216.336,79.361 217.931 M80.000 223.389 C 80.000 224.187,80.674 224.506,80.933 223.831 C 81.052 223.520,80.891 223.167,80.575 223.046 C 80.243 222.918,80.000 223.063,80.000 223.389 M318.063 225.000 C 318.054 225.440,318.195 226.520,318.377 227.400 L 318.708 229.000 318.714 227.600 C 318.717 226.830,318.576 225.750,318.400 225.200 C 318.141 224.391,318.077 224.353,318.063 225.000 M80.806 228.300 C 80.824 229.177,81.588 229.759,81.594 228.900 C 81.597 228.405,81.420 228.000,81.200 228.000 C 80.980 228.000,80.803 228.135,80.806 228.300 M318.870 230.800 C 318.864 231.350,319.003 232.610,319.180 233.600 L 319.500 235.400 319.510 233.600 C 319.516 232.610,319.376 231.350,319.200 230.800 L 318.880 229.800 318.870 230.800 M81.677 232.900 C 81.763 234.385,82.152 234.865,82.488 233.900 C 82.584 233.625,82.421 232.950,82.126 232.400 C 81.601 231.420,81.592 231.429,81.677 232.900 M319.857 237.800 C 319.991 239.120,320.168 240.275,320.250 240.367 C 320.569 240.721,320.324 236.956,319.979 236.200 C 319.738 235.672,319.696 236.216,319.857 237.800 M82.472 237.911 C 82.526 238.625,82.757 239.144,82.985 239.063 C 83.462 238.895,83.315 237.588,82.753 237.007 C 82.511 236.756,82.409 237.084,82.472 237.911 M320.412 241.233 C 320.427 241.907,321.031 246.364,321.599 250.000 C 321.823 251.430,322.197 253.950,322.430 255.600 C 322.865 258.675,323.252 261.283,324.003 266.200 C 324.238 267.740,324.595 270.170,324.794 271.600 C 324.994 273.030,325.535 276.630,325.997 279.600 C 326.458 282.570,326.993 286.146,327.185 287.547 C 327.530 290.063,328.400 291.894,328.400 290.104 C 328.400 289.633,328.243 289.150,328.050 289.031 C 327.858 288.912,327.589 287.866,327.454 286.707 C 327.318 285.548,327.031 283.430,326.817 282.000 C 326.602 280.570,326.227 278.050,325.984 276.400 C 325.740 274.750,325.385 272.410,325.196 271.200 C 325.007 269.990,324.648 267.560,324.400 265.800 C 324.152 264.040,323.792 261.610,323.600 260.400 C 323.408 259.190,323.048 256.760,322.800 255.000 C 322.552 253.240,322.194 250.810,322.005 249.600 C 321.817 248.390,321.474 245.981,321.245 244.247 C 320.876 241.467,320.378 239.663,320.412 241.233 M83.378 243.378 C 83.441 243.954,83.619 244.552,83.773 244.706 C 83.926 244.860,83.987 244.501,83.908 243.908 C 83.720 242.502,83.228 242.010,83.378 243.378 M85.830 258.267 C 85.689 258.634,85.760 259.120,85.987 259.347 C 86.271 259.631,86.400 259.423,86.400 258.680 C 86.400 257.446,86.200 257.301,85.830 258.267 M86.400 263.176 C 86.400 263.629,86.580 264.000,86.800 264.000 C 87.020 264.000,87.200 263.741,87.200 263.424 C 87.200 263.107,87.020 262.736,86.800 262.600 C 86.580 262.464,86.400 262.723,86.400 263.176 M87.275 268.046 C 87.219 268.777,87.343 269.159,87.586 269.009 C 87.807 268.872,87.936 268.413,87.871 267.990 C 87.678 266.724,87.374 266.752,87.275 268.046 M88.073 273.121 C 88.126 273.824,88.318 274.400,88.499 274.400 C 88.885 274.400,88.699 272.565,88.269 272.136 C 88.108 271.974,88.019 272.417,88.073 273.121 M88.800 278.200 C 88.800 278.750,88.958 279.200,89.150 279.200 C 89.343 279.200,89.500 278.750,89.500 278.200 C 89.500 277.650,89.343 277.200,89.150 277.200 C 88.958 277.200,88.800 277.650,88.800 278.200 M89.600 283.200 C 89.600 283.640,89.780 284.000,90.000 284.000 C 90.220 284.000,90.400 283.640,90.400 283.200 C 90.400 282.760,90.220 282.400,90.000 282.400 C 89.780 282.400,89.600 282.760,89.600 283.200 M90.400 288.400 C 90.400 288.840,90.580 289.200,90.800 289.200 C 91.020 289.200,91.200 288.840,91.200 288.400 C 91.200 287.960,91.020 287.600,90.800 287.600 C 90.580 287.600,90.400 287.960,90.400 288.400 M94.202 298.802 C 94.602 299.244,95.015 299.518,95.121 299.412 C 95.390 299.143,94.392 298.000,93.889 298.000 C 93.662 298.000,93.803 298.361,94.202 298.802 M97.600 300.835 C 97.600 301.036,97.990 301.200,98.467 301.200 C 98.943 301.200,99.208 301.075,99.055 300.922 C 98.623 300.489,97.600 300.429,97.600 300.835 " stroke="none" fill="#ecbc5b" fill-rule="evenodd"></path><path id="path4" d="M106.262 139.900 C 106.160 140.065,152.032 140.200,208.200 140.200 C 264.368 140.200,310.240 140.065,310.138 139.900 C 309.896 139.508,106.504 139.508,106.262 139.900 M312.929 166.000 C 312.910 178.210,313.008 188.733,313.147 189.384 C 313.385 190.495,313.324 153.945,313.077 147.000 C 313.014 145.240,312.947 153.790,312.929 166.000 M315.701 206.600 C 315.705 207.480,315.787 207.793,315.883 207.295 C 315.979 206.798,315.975 206.078,315.875 205.695 C 315.775 205.313,315.696 205.720,315.701 206.600 M316.501 211.800 C 316.505 212.680,316.587 212.993,316.683 212.495 C 316.779 211.998,316.775 211.278,316.675 210.895 C 316.575 210.513,316.496 210.920,316.501 211.800 M317.301 217.400 C 317.305 218.280,317.387 218.593,317.483 218.095 C 317.579 217.598,317.575 216.878,317.475 216.495 C 317.375 216.113,317.296 216.520,317.301 217.400 M318.093 223.200 C 318.093 223.970,318.175 224.285,318.276 223.900 C 318.376 223.515,318.376 222.885,318.276 222.500 C 318.175 222.115,318.093 222.430,318.093 223.200 M320.493 239.600 C 320.493 240.370,320.575 240.685,320.676 240.300 C 320.776 239.915,320.776 239.285,320.676 238.900 C 320.575 238.515,320.493 238.830,320.493 239.600 M321.256 245.600 C 321.256 245.930,321.411 246.560,321.600 247.000 C 321.817 247.504,321.944 247.578,321.944 247.200 C 321.944 246.870,321.789 246.240,321.600 245.800 C 321.383 245.296,321.256 245.222,321.256 245.600 M324.428 267.476 C 324.518 268.515,325.144 269.396,325.172 268.524 C 325.187 268.042,325.020 267.536,324.800 267.400 C 324.580 267.264,324.413 267.298,324.428 267.476 M325.228 272.676 C 325.318 273.715,325.944 274.596,325.972 273.724 C 325.987 273.242,325.820 272.736,325.600 272.600 C 325.380 272.464,325.213 272.498,325.228 272.676 M326.828 283.476 C 326.918 284.515,327.544 285.396,327.572 284.524 C 327.587 284.042,327.420 283.536,327.200 283.400 C 326.980 283.264,326.813 283.298,326.828 283.476 " stroke="none" fill="#ecb454" fill-rule="evenodd"></path><path id="path5" d="M208.046 140.700 L 310.292 140.802 311.346 141.855 C 311.926 142.435,312.400 142.718,312.400 142.484 C 312.400 142.250,311.926 141.685,311.346 141.229 L 310.292 140.400 208.046 140.499 L 105.800 140.598 208.046 140.700 M103.784 149.100 L 103.800 155.400 201.000 155.401 L 298.200 155.402 201.110 155.300 L 104.020 155.198 103.894 148.999 L 103.769 142.799 103.784 149.100 M299.200 155.970 C 299.530 156.200,300.151 156.391,300.581 156.394 C 301.451 156.401,305.600 158.790,305.600 159.285 C 305.600 159.458,305.825 159.594,306.100 159.586 C 306.753 159.567,304.592 157.760,302.800 156.827 C 301.196 155.992,298.212 155.281,299.200 155.970 M306.871 160.700 C 308.388 162.485,309.297 165.382,310.040 170.800 C 310.266 172.450,310.610 174.790,310.803 176.000 C 310.996 177.210,311.265 179.190,311.399 180.400 C 311.711 183.203,311.991 184.542,312.217 184.316 C 312.388 184.145,312.025 181.116,311.171 175.600 C 310.950 174.170,310.601 171.830,310.396 170.400 C 309.631 165.067,307.834 160.000,306.709 160.000 C 306.460 160.000,306.530 160.298,306.871 160.700 " stroke="none" fill="#f4d494" fill-rule="evenodd"></path><path id="path6" d="" stroke="none" fill="#f4d484" fill-rule="evenodd"></path><path id="path7" d="M104.401 141.398 C 103.886 141.948,103.539 142.448,103.632 142.511 C 103.724 142.574,104.284 142.124,104.874 141.512 C 105.465 140.901,105.812 140.400,105.644 140.400 C 105.477 140.400,104.917 140.849,104.401 141.398 M312.586 163.000 C 312.586 174.440,312.637 179.062,312.700 173.272 C 312.762 167.482,312.762 158.122,312.700 152.472 C 312.637 146.822,312.586 151.560,312.586 163.000 M103.360 149.400 C 103.361 152.700,103.422 153.997,103.498 152.282 C 103.573 150.567,103.572 147.867,103.497 146.282 C 103.421 144.697,103.359 146.100,103.360 149.400 " stroke="none" fill="#eec67c" fill-rule="evenodd"></path><path id="path8" d="M152.332 155.900 C 179.025 155.957,222.585 155.957,249.132 155.900 C 275.679 155.843,253.840 155.797,200.600 155.797 C 147.360 155.797,125.639 155.843,152.332 155.900 M72.769 172.500 C 72.370 173.806,72.804 174.564,73.400 173.600 C 73.536 173.380,73.446 173.200,73.200 173.200 C 72.954 173.200,72.864 173.020,73.000 172.800 C 73.136 172.580,73.147 172.400,73.024 172.400 C 72.901 172.400,72.786 172.445,72.769 172.500 M310.068 174.400 C 310.088 175.439,310.718 177.146,310.732 176.200 C 310.738 175.760,310.589 175.040,310.400 174.600 C 310.189 174.110,310.061 174.032,310.068 174.400 M310.868 179.800 C 310.874 180.240,311.024 181.050,311.200 181.600 L 311.520 182.600 311.532 181.600 C 311.538 181.050,311.389 180.240,311.200 179.800 L 310.856 179.000 310.868 179.800 M311.600 185.353 C 311.600 185.683,311.780 186.064,312.000 186.200 C 312.220 186.336,312.400 186.177,312.400 185.847 C 312.400 185.517,312.220 185.136,312.000 185.000 C 311.780 184.864,311.600 185.023,311.600 185.353 M75.877 193.100 C 75.759 193.705,75.798 194.342,75.965 194.515 C 76.133 194.688,76.293 194.193,76.322 193.415 C 76.386 191.725,76.176 191.576,75.877 193.100 M77.324 202.100 C 76.825 202.769,76.892 203.697,77.454 203.885 C 77.733 203.978,77.889 203.566,77.858 202.818 C 77.801 201.419,77.817 201.441,77.324 202.100 M78.806 212.476 C 78.818 213.481,79.587 214.308,79.594 213.324 C 79.597 212.842,79.420 212.336,79.200 212.200 C 78.980 212.064,78.803 212.188,78.806 212.476 M83.376 241.638 C 83.227 241.879,83.375 242.346,83.704 242.676 C 84.236 243.208,84.281 243.159,84.105 242.237 C 83.885 241.087,83.774 240.995,83.376 241.638 " stroke="none" fill="#f4c46c" fill-rule="evenodd"></path></g></svg>