<?xml version="1.0" standalone="yes"?>
<svg xmlns="http://www.w3.org/2000/svg" width="840" height="840">
    <!-- <path style="fill:#ffffff; stroke:none;" d="M0 0L0 840L840 840L840 0L0 0z"/> -->
    <path style="fill:#a9b4ba; stroke:none;"
          d="M420 94L420 95L440 95L420 94M460 94L460 95L468 95L460 94M395 95L395 96L408 96L395 95z" />
    <path style="fill:#775345; stroke:none;"
          d="M307 543C314.864 575.654 319.747 606.415 339.194 635C373.68 685.687 447.129 696.426 489.829 649C517.493 618.275 523.734 581.476 533 543C537.41 545.063 545.033 549.775 550 548.879C556.536 547.7 564.008 538.253 569 534.08C585.153 520.578 601.061 506.754 617 493C627.661 483.8 638.283 474.552 649 465.421C653.656 461.454 661.199 456.95 663.397 451C665.981 444.001 663.583 434.21 663.089 427C662.083 412.304 662.04 397.668 660.286 383C652.818 320.556 642.439 255.397 608.575 201C588.598 168.91 560.644 143.594 524 132.721C512.21 129.222 499.5 130.729 488.043 127.682C475.831 124.434 478.169 97.2651 465.895 95.1481C446.728 91.8423 423.311 94.5868 404 95.9105C381.189 97.4741 359.518 101.303 338 109.425C228.836 150.629 191.378 275.515 180.831 381C178.826 401.055 177.841 420.887 176.961 441C176.548 450.432 174.639 460.538 176.148 469.985C177.653 479.408 198.528 488.685 206 493.667C226.052 507.034 245.978 520.587 266 534.001C272.343 538.25 282.193 548.513 290 549.1C295.018 549.478 302.446 545.028 307 543z" />
    <path style="fill:#a9b4ba; stroke:none;"
          d="M469.333 95.6667L469.667 96.3333L469.333 95.6667M387 96L387 97L394 97L387 96M380 97L380 98L384 98L380 97M470.333 97.6667L470.667 98.3333L470.333 97.6667M375 98L375 99L378 99L375 98M370 99L370 100L373 100L370 99M471.333 99.6667L471.667 100.333L471.333 99.6667M365 100L365 101L368 101L365 100M361 101L361 102L364 102L361 101M358.667 102.333L359.333 102.667L358.667 102.333M472 102L473 103L472 102M355 103L356 104L355 103M351.667 104.333L352.333 104.667L351.667 104.333M473 104L474 105L473 104M348.667 105.333L349.333 105.667L348.667 105.333M345.667 106.333L346.333 106.667L345.667 106.333M474 106L475 107L474 106M342.667 107.333L343.333 107.667L342.667 107.333M340 108L341 109L340 108M475 108L476 109L475 108M337 109L338 110L337 109M334.667 110.333L335.333 110.667L334.667 110.333M476 110L477 111L476 110M332 111L333 112L332 111M329.667 112.333L330.333 112.667L329.667 112.333M477 112L478 113L477 112M327.667 113.333L328.333 113.667L327.667 113.333M325.667 114.333L326.333 114.667L325.667 114.333M478 114L479 115L478 114M323 115L324 116L323 115M321 116L322 117L321 116M479 116L480 117L479 116M319 117L320 118L319 117M480.333 117.667L480.667 118.333L480.333 117.667M317 118L318 119L317 118M315 119L316 120L315 119M481.333 119.667L481.667 120.333L481.333 119.667M313 120L314 121L313 120M312 121L313 122L312 121M310 122L311 123L310 122M482 122L483 123L482 122M308 123L309 124L308 123M483 124L484 125L483 124M305 125L306 126L305 125M303 126L304 127L303 126M484 126L485 127L484 126M302 127L303 128L302 127M485 127L485 128L496 128L485 127M300 128L301 129L300 128M502 128L502 129L506 129L502 128M299 129L300 130L299 129M509 129L509 130L512 130L509 129M297 130L298 131L297 130M514 130L514 131L517 131L514 130M296 131L297 132L296 131M519.667 131.333L520.333 131.667L519.667 131.333M294 132L295 133L294 132M523.667 132.333L524.333 132.667L523.667 132.333M293 133L294 134L293 133M526.667 133.333L527.333 133.667L526.667 133.333M292 134L293 135L292 134M529.667 134.333L530.333 134.667L529.667 134.333M290 135L291 136L290 135M532.667 135.333L533.333 135.667L532.667 135.333M289 136L290 137L289 136M535 136L536 137L535 136M288 137L289 138L288 137M538 137L539 138L538 137M540.667 138.333L541.333 138.667L540.667 138.333M285 139L286 140L285 139M542.667 139.333L543.333 139.667L542.667 139.333M284 140L285 141L284 140M544.667 140.333L545.333 140.667L544.667 140.333M283 141L284 142L283 141M546.667 141.333L547.333 141.667L546.667 141.333M281 142L282 143L281 142M548.667 142.333L549.333 142.667L548.667 142.333M280 143L281 144L280 143M550 143L551 144L550 143M279 144L280 145L279 144M552 144L553 145L552 144M278 145L279 146L278 145M554 145L555 146L554 145M277 146L278 147L277 146M276 147L277 148L276 147M557 147L558 148L557 147M275 148L276 149L275 148M559 148L560 149L559 148M274 149L275 150L274 149M560 149L561 150L560 149M562 150L563 151L562 150M563 151L564 152L563 151M564.667 152.333L565.333 152.667L564.667 152.333M566 153L567 154L566 153M567 154L568 155L567 154M568.667 155.333L569.333 155.667L568.667 155.333M570 156L571 157L570 156M571 157L572 158L571 157M572 158L573 159L572 158M264 159L265 160L264 159M573 159L574 160L573 159M263 160L264 161L263 160M574 160L575 161L574 160M262 161L263 162L262 161M261 162L262 163L261 162M260 163L261 164L260 163M259 164L260 165L259 164M579 164L580 165L579 164M580 165L581 166L580 165M581 166L582 167L581 166M582 167L583 168L582 167M256 168L257 169L256 168M583 168L584 169L583 168M255 169L256 170L255 169M584 169L585 170L584 169M254 170L255 171L254 170M585 170L586 171L585 170M586 171L587 172L586 171M587 172L588 173L587 172M588 173L589 174L588 173M251 174L252 175L251 174M250 175L251 176L250 175M589 175L590 176L589 175M590 176L591 177L590 176M591 177L592 178L591 177M248 178L249 179L248 178M592 178L593 179L592 178M247 179L248 180L247 179M593 179L594 180L593 179M246 180L247 181L246 180M594 181L595 182L594 181M245 182L246 183L245 182M595 182L596 183L595 182M244 183L245 184L244 183M596 183L597 184L596 183M243 184L244 185L243 184M242 186L243 187L242 186M598 186L599 187L598 186M241 187L242 188L241 187M599 187L600 188L599 187M600 188L601 189L600 188M240 189L241 190L240 189M239 190L240 191L239 190M601 190L602 191L601 190M602 191L603 192L602 191M238 192L239 193L238 192M603 193L604 194L603 193M237 194L238 195L237 194M604 194L605 195L604 194M236 195L237 196L236 195M605 196L606 197L605 196M235 197L236 198L235 197M606 197L607 198L606 197M234 198L235 199L234 198M607 199L608 200L607 199M233 200L234 201L233 200M232 202L233 203L232 202M609 202L610 203L609 202M231 203L232 204L231 203M610 204L611 205L610 204M230 205L231 206L230 205M229 207L230 208L229 207M612 207L613 208L612 207M228 209L229 210L228 209M613 209L614 210L613 209M614 211L615 212L614 211M226 212L227 213L226 212M615 213L616 214L615 213M225 214L226 215L225 214M616 215L617 216L616 215M224 216L225 217L224 216M223 218L224 219L223 218M618 218L619 219L618 218M222 220L223 221L222 220M619 220L620 221L619 220M221 222L222 223L221 222M620 222L621 223L620 222M220 224L221 225L220 224z" />
    <path style="fill:#fdb142; stroke:none;"
          d="M486 225C468.754 230.459 451.57 244.17 436 253.397C405.144 271.682 374.023 289.571 343 307.576C330.646 314.746 318.256 321.862 306 329.2C301.664 331.796 293.946 334.406 291.028 338.634C287.397 343.896 290 357.732 290 364C290 387.097 285.489 415.463 290.39 438C293.527 452.423 309.299 469.312 320 478.714C325.179 483.264 336.9 489.093 338.682 496.015C341.866 508.383 337.953 523.269 339.17 536C342.928 575.331 359.903 633.169 403 644.841C466.542 662.05 496.045 586.076 500.83 536C502.033 523.414 499.957 510.587 501.059 498.001C501.78 489.756 514.254 483.762 520 478.714C531.016 469.035 544.033 454.046 549.031 440C552.297 430.822 550 417.675 550 408L550 340C550 330.14 553.074 313.956 548.697 305C544.449 296.309 536.221 288.526 530.2 281C515.476 262.596 498.995 244.665 486 225z" />
    <path style="fill:#a9b4ba; stroke:none;"
          d="M621 225L622 226L621 225M219 226L220 227L219 226M622 227L623 228L622 227M218.333 228.667L218.667 229.333L218.333 228.667M623 229L624 230L623 229M217.333 230.667L217.667 231.333L217.333 230.667M624 231L625 232L624 231M216 233L217 234L216 233M625 233L626 234L625 233M215 235L216 236L215 235M493 235L494 236L493 235M626 236L627 237L626 236M214.333 237.667L214.667 238.333L214.333 237.667M627 238L628 239L627 238M213 240L214 241L213 240M628.333 240.667L628.667 241.333L628.333 240.667M212.333 242.667L212.667 243.333L212.333 242.667M629 243L630 244L629 243M211 245L212 246L211 245M630.333 245.667L630.667 246.333L630.333 245.667M446 247L447 248L446 247M210 248L211 249L210 248M631 248L632 249L631 248M209 250L210 251L209 250M632.333 250.667L632.667 251.333L632.333 250.667M208 253L209 254L208 253M633.333 253.667L633.667 254.333L633.333 253.667M207.333 255.667L207.667 256.333L207.333 255.667M634 256L635 257L634 256M206.333 258.667L206.667 259.333L206.333 258.667M635 259L636 260L635 259M205 261L206 262L205 261M422 261L423 262L422 261M420 262L421 263L420 262M636 262L637 263L636 262M204 264L205 265L204 264M415 265L416 266L415 265M637 265L638 266L637 265M203 267L204 268L203 267M410 268L411 269L410 268M638 268L639 269L638 268M408 269L409 270L408 269M202 270L203 271L202 270M639.333 271.667L639.667 272.333L639.333 271.667M201.333 273.667L201.667 274.333L201.333 273.667M640.333 274.667L640.667 275.333L640.333 274.667M200.333 276.667L200.667 277.333L200.333 276.667M396 276L397 277L396 276M641.333 277.667L641.667 278.333L641.333 277.667M199 280L200 281L199 280M642.333 281.667L642.667 282.333L642.333 281.667M198.333 283.667L198.667 284.333L198.333 283.667M643 285L644 286L643 285M197.333 286.667L197.667 287.333L197.333 286.667M644.333 288.667L644.667 289.333L644.333 288.667M196.333 290.667L196.667 291.333L196.333 290.667M645.333 293.667L645.667 294.333L645.333 293.667M195.333 294.667L195.667 295.333L195.333 294.667M194 297L194 301L195 301L194 297M646.333 297.667L646.667 298.333L646.333 297.667M545 300L546 301L545 300M647 300L647 303L648 303L647 300M193.333 303.667L193.667 304.333L193.333 303.667M548 304L549 305L548 304M648 305L648 308L649 308L648 305M192.333 307.667L192.667 308.333L192.333 307.667M649 309L649 312L650 312L649 309M191 311L191 314L192 314L191 311M650 314L650 317L651 317L650 314M190.333 316.667L190.667 317.333L190.333 316.667M651 319L651 322L652 322L651 319M189 320L189 323L190 323L189 320M188 325L188 328L189 328L188 325M652.333 325.667L652.667 326.333L652.333 325.667M653 330L653 333L654 333L653 330M187.333 331.667L187.667 332.333L187.333 331.667M302 331L303 332L302 331M295 335L296 336L295 335M654 335L654 338L655 338L654 335M186 336L186 339L187 339L186 336M655 341L655 345L656 345L655 341M185 342L185 345L186 345L185 342M184 348L184 352L185 352L184 348M656 348L656 352L657 352L656 348M183 355L183 358L184 358L183 355z" />
    <path style="fill:#775345; stroke:none;"
          d="M351 355.533C330.133 360.572 339.069 391.801 360 386.581C379.586 381.697 370.622 350.795 351 355.533M481 355.533C460.187 360.559 468.994 391.962 490 386.442C509.572 381.299 500.549 350.813 481 355.533z" />
    <path style="fill:#a9b4ba; stroke:none;"
          d="M657 355L657 359L658 359L657 355M182 362L182 366L183 366L182 362M658 362L658 366L659 366L658 362M181 370L181 374L182 374L181 370M659 371L659 375L660 375L659 371M180 378L180 384L181 384L180 378M660 379L660 385L661 385L660 379M179 388L179 394L180 394L179 388M661 390L661 396L662 396L661 390M178 399L178 406L179 406L178 399M662 402L662 410L663 410L662 402M177 413L177 422L178 422L177 413M663 418L663 431L664 431L663 418M176 432L176 446L177 446L176 432M663 452L664 453L663 452M662 453L663 454L662 453M661 454L662 455L661 454M660 455L661 456L660 455M659 456L660 457L659 456M655 459L656 460L655 459M654 460L655 461L654 460M653 461L654 462L653 461M652 462L653 463L652 462M651 463L652 464L651 463M650 464L651 465L650 464M648 465L649 466L648 465M647 466L648 467L647 466M646 467L647 468L646 467M645 468L646 469L645 468M644 469L645 470L644 469M643 470L644 471L643 470M641 471L642 472L641 471M640 472L641 473L640 472M176 473L177 474L176 473M639 473L640 474L639 473M177 474L178 475L177 474M638 474L639 475L638 474M179 475L180 476L179 475M637 475L638 476L637 475M180 476L181 477L180 476M182 477L183 478L182 477M183 478L184 479L183 478M185 479L186 480L185 479M632 479L633 480L632 479M186 480L187 481L186 480M631 480L632 481L631 480M187 481L188 482L187 481M630 481L631 482L630 481M189 482L190 483L189 482M190 483L191 484L190 483M192 484L193 485L192 484M626 484L627 485L626 484M193 485L194 486L193 485M625 485L626 486L625 485M195 486L196 487L195 486M624 486L625 487L624 486M196 487L197 488L196 487M623 487L624 488L623 487M198 488L199 489L198 488M622 488L623 489L622 488M199 489L200 490L199 489M201 490L202 491L201 490M619 490L620 491L619 490M618 491L619 492L618 491M204 492L205 493L204 492M617 492L618 493L617 492M205 493L206 494L205 493M616 493L617 494L616 493M207 494L208 495L207 494M208 495L209 496L208 495M210 496L211 497L210 496M612 496L613 497L612 496M211 497L212 498L211 497M611 497L612 498L611 497M213 498L214 499L213 498M610 498L611 499L610 498M214 499L215 500L214 499M609 499L610 500L609 499M216 500L217 501L216 500M217 501L218 502L217 501M219 502L220 503L219 502M605 502L606 503L605 502M220 503L221 504L220 503M604 503L605 504L604 503M222 504L223 505L222 504M603 504L604 505L603 504M223 505L224 506L223 505M602 505L603 506L602 505M225 506L226 507L225 506M226 507L227 508L226 507M598 508L599 509L598 508M229 509L230 510L229 509M597 509L598 510L597 509M231 510L232 511L231 510M596 510L597 511L596 510M232 511L233 512L232 511M595 511L596 512L595 511M235 513L236 514L235 513M591 514L592 515L591 514M238 515L239 516L238 515M590 515L591 516L590 515M589 516L590 517L589 516M241 517L242 518L241 517M242 518L243 519L242 518M244 519L245 520L244 519M584 520L585 521L584 520M247 521L248 522L247 521M583 521L584 522L583 521M582 522L583 523L582 522M250 523L251 524L250 523M581 523L582 524L581 523M251 524L252 525L251 524M253 525L254 526L253 525M254 526L255 527L254 526M577 526L578 527L577 526M256 527L257 528L256 527M576 527L577 528L576 527M257 528L258 529L257 528M575 528L576 529L575 528M259 529L260 530L259 529M574 529L575 530L574 529M260 530L261 531L260 530M262 531L263 532L262 531M263 532L264 533L263 532M570 532L571 533L570 532M265 533L266 534L265 533M569 533L570 534L569 533M266 534L267 535L266 534M568 534L569 535L568 534M268 535L269 536L268 535M269 536L270 537L269 536M271 537L272 538L271 537M564 537L565 538L564 537M272 538L273 539L272 538M339.333 538.667L339.667 539.333L339.333 538.667M500.333 538.667L500.667 539.333L500.333 538.667M563 538L564 539L563 538M562 539L563 540L562 539M275 540L276 541L275 540M561 540L562 541L561 540M560 541L561 542L560 541M278 542L279 543L278 542z" />
    <path style="fill:#43b3e9; stroke:none;"
          d="M160 745L680 745C680 651.904 621.301 572.872 533 543C529.773 553.619 529.115 565.189 526.265 576C519.573 601.385 508.579 625.832 491.561 646C448.962 696.484 374.827 686.373 339.194 634C326.715 615.657 318.259 594.46 312.895 573C310.437 563.166 309.93 552.643 307 543C218.37 571.888 160 652.392 160 745z" />
    <path style="fill:#a9b4ba; stroke:none;"
          d="M557 543L558 544L557 543M281 544L282 545L281 544M556 544L557 545L556 544M282 545L283 546L282 545M340.333 545.667L340.667 546.333L340.333 545.667M499.333 545.667L499.667 546.333L499.333 545.667M555 545L556 546L555 545M284 546L285 547L284 546M554 546L555 547L554 546M285 547L286 548L285 547M287 548L288 549L287 548M288.333 549.667L288.667 550.333L288.333 549.667M550 549L551 550L550 549M341.333 550.667L341.667 551.333L341.333 550.667M498.333 550.667L498.667 551.333L498.333 550.667M286 551L287 552L286 551M553 551L554 552L553 551M284 552L285 553L284 552M555 552L556 553L555 552M281 553L282 554L281 553M557 553L558 554L557 553M559 554L560 555L559 554M497.333 555.667L497.667 556.333L497.333 555.667M561 555L562 556L561 555M342 556L343 557L342 556M563 556L564 557L563 556M274 557L275 558L274 557M565 557L566 558L565 557M272 558L273 559L272 558M567 558L568 559L567 558M270 559L271 560L270 559M569 559L570 560L569 559M268 560L269 561L268 560M343.333 560.667L343.667 561.333L343.333 560.667M496.333 560.667L496.667 561.333L496.333 560.667M266 561L267 562L266 561M572 561L573 562L572 561M264 562L265 563L264 562M574 562L575 563L574 562M263 563L264 564L263 563M576 563L577 564L576 563M261 564L262 565L261 564M344.333 564.667L344.667 565.333L344.333 564.667M495.333 564.667L495.667 565.333L495.333 564.667M579 565L580 566L579 565M258 566L259 567L258 566M581 566L582 567L581 566M256 567L257 568L256 567M255 568L256 569L255 568M345.333 568.667L345.667 569.333L345.333 568.667M494.333 568.667L494.667 569.333L494.333 568.667M584 568L585 569L584 568M253 569L254 570L253 569M586 569L587 570L586 569M587 570L588 571L587 570M250 571L251 572L250 571M589 571L590 572L589 571M346 572L347 573L346 572M493 572L494 573L493 572M590 572L591 573L590 572M247 573L248 574L247 573M246 574L247 575L246 574M593 574L594 575L593 574M347.333 575.667L347.667 576.333L347.333 575.667M492.333 575.667L492.667 576.333L492.333 575.667M243 576L244 577L243 576M596 576L597 577L596 576M597 577L598 578L597 577M348.333 578.667L348.667 579.333L348.333 578.667M491.333 578.667L491.667 579.333L491.333 578.667M239 579L240 580L239 579M601 580L602 581L601 580M235 582L236 583L235 582M349 582L350 583L349 582M490 582L491 583L490 582M234 583L235 584L234 583M605 583L606 584L605 583M350 584L351 585L350 584M489 584L490 585L489 584M606 584L607 585L606 584M230 586L231 587L230 586M229 587L230 588L229 587M351 587L352 588L351 587M488 587L489 588L488 587M610 587L611 588L610 587M228 588L229 589L228 588M611 588L612 589L611 588M227 589L228 590L227 589M612 589L613 590L612 589M352 590L353 591L352 590M487 590L488 591L487 590M613 590L614 591L613 590M614 591L615 592L614 591M353 592L354 593L353 592M486 592L487 593L486 592M220 595L221 596L220 595M354 595L355 596L354 595M219 596L220 597L219 596M218 597L219 598L218 597M355 597L356 598L355 597M484 597L485 598L484 597M217 598L218 599L217 598M216 599L217 600L216 599M356 599L357 600L356 599M483 599L484 600L483 599M215 600L216 601L215 600M357 601L358 602L357 601M482 601L483 602L482 601M358 603L359 604L358 603M481 603L482 604L481 603M359 605L360 606L359 605M480 605L481 606L480 605M629 606L630 607L629 606M360 607L361 608L360 607M479 607L480 608L479 607M630 607L631 608L630 607M208 608L209 609L208 608M631 608L632 609L631 608M207 609L208 610L207 609M632 609L633 610L632 609M206 610L207 611L206 610M477 610L478 611L477 610M363 612L364 613L363 612M476 612L477 613L476 612M636 614L637 615L636 614M202 615L203 616L202 615M365 615L366 616L365 615M474 615L475 616L474 615M637 615L638 616L637 615M201 616L202 617L201 616M367 618L368 619L367 618M472 618L473 619L472 618M639 618L640 619L639 618M199 619L200 620L199 619M368 619L369 620L368 619M471 619L472 620L471 619M640 619L641 620L640 619M198 620L199 621L198 620M370 622L371 623L370 622M469 622L470 623L469 622M642 622L643 623L642 622M196 623L197 624L196 623M371 623L372 624L371 623M468 623L469 624L468 623M643 623L644 624L643 623M372 624L373 625L372 624M467 624L468 625L467 624M644 625L645 626L644 625M194 626L195 627L194 626M645 626L646 627L645 626M192 629L193 630L192 629M647 629L648 630L647 629M190 632L191 633L190 632M649 632L650 633L649 632M381 633L382 634L381 633M458 633L459 634L458 633M382 634L383 635L382 634M457 634L458 635L457 634M650 634L651 635L650 634M188 635L189 636L188 635M651 635L652 636L651 635M385 636L386 637L385 636M454 636L455 637L454 636M187 637L188 638L187 637M652 637L653 638L652 637M388 638L389 639L388 638M451 638L452 639L451 638M653 639L654 640L653 639M185 640L186 641L185 640M654 641L655 642L654 641M184 642L185 643L184 642M396 642L397 643L396 642M443 642L444 643L443 642M398 643L399 644L398 643M441 643L442 644L441 643M183 644L184 645L183 644M401 644L402 645L401 644M438 644L439 645L438 644M404.667 645.333L405.333 645.667L404.667 645.333M434.667 645.333L435.333 645.667L434.667 645.333M182 646L183 647L182 646M409 646L409 647L412 647L409 646M428 646L428 647L431 647L428 646M657 646L658 647L657 646M181 648L182 649L181 648M658 648L659 649L658 648M180 650L181 651L180 650M659 650L660 651L659 650M179 652L180 653L179 652M660 652L661 653L660 652M178 654L179 655L178 654M661 654L662 655L661 654M662 657L663 658L662 657M176 659L177 660L176 659M663 659L664 660L663 659M175 661L176 662L175 661M174.333 663.667L174.667 664.333L174.333 663.667M665 664L666 665L665 664M173 666L174 667L173 666M666 667L667 668L666 667M172 669L173 670L172 669M667 669L668 670L667 669M171.333 671.667L171.667 672.333L171.333 671.667M668 672L669 673L668 672M170 675L171 676L170 675M669 675L670 676L669 675M169 678L170 679L169 678M670 678L671 679L670 678M168.333 681.667L168.667 682.333L168.333 681.667M671.333 681.667L671.667 682.333L671.333 681.667M167 685L168 686L167 685M672 685L673 686L672 685M673.333 688.667L673.667 689.333L673.333 688.667M166 689L167 690L166 689M165.333 693.667L165.667 694.333L165.333 693.667M674.333 693.667L674.667 694.333L674.333 693.667M675.333 697.667L675.667 698.333L675.333 697.667M164 698L165 699L164 698M163 702L163 705L164 705L163 702M676.333 703.667L676.667 704.333L676.333 703.667M162 708L162 711L163 711L162 708M677.333 710.667L677.667 711.333L677.333 710.667M161 715L161 720L162 720L161 715M678 717L678 720L679 720L678 717M679 726L679 734L680 734L679 726M160 728L160 734L161 734L160 728z" />
</svg>