<?xml version="1.0" standalone="no"?>
<!DOCTYPE svg PUBLIC "-//W3C//DTD SVG 20010904//EN"
 "http://www.w3.org/TR/2001/REC-SVG-20010904/DTD/svg10.dtd">
<svg version="1.0" xmlns="http://www.w3.org/2000/svg"
 width="345.000000pt" height="352.000000pt" viewBox="0 0 345.000000 352.000000"
 preserveAspectRatio="xMidYMid meet">
<metadata>
Created by potrace 1.16, written by Peter Selinger 2001-2019
</metadata>
<g transform="translate(0.000000,352.000000) scale(0.100000,-0.100000)"
fill="#000000" stroke="none">
<path d="M552 3228 c-5 -7 -15 -32 -21 -55 -17 -64 -71 -82 -121 -43 -14 11
-34 20 -45 20 -23 0 -155 -127 -155 -149 0 -7 10 -27 22 -43 24 -34 28 -79 9
-101 -6 -8 -28 -18 -49 -22 -63 -12 -72 -27 -72 -124 0 -47 4 -92 9 -100 5 -8
31 -21 57 -30 35 -11 53 -24 62 -44 12 -25 11 -32 -12 -72 -14 -24 -26 -48
-26 -53 0 -14 86 -108 122 -133 l30 -22 53 28 c51 28 53 28 78 12 17 -11 30
-33 37 -59 16 -60 31 -68 125 -68 95 0 110 8 128 70 9 30 21 50 40 60 25 14
30 13 76 -12 27 -16 52 -28 56 -28 16 0 145 135 145 152 0 10 -12 36 -26 58
-23 35 -25 41 -12 67 9 20 26 32 60 43 26 8 52 20 58 26 7 7 10 48 8 110 l-3
99 -57 18 c-45 14 -58 23 -66 46 -8 24 -6 36 14 67 13 22 24 46 24 54 0 20
-131 150 -150 150 -8 0 -30 -9 -48 -20 -34 -21 -68 -25 -90 -12 -7 5 -20 33
-30 63 l-17 54 -101 3 c-73 2 -104 -1 -112 -10z m179 -313 c24 -9 61 -32 82
-53 139 -135 40 -372 -155 -372 -71 0 -113 16 -157 61 -45 45 -64 92 -63 160
0 153 147 255 293 204z"/>
<path d="M1927 3216 c-131 -49 -184 -184 -121 -308 15 -29 28 -75 31 -107 6
-73 18 -97 60 -116 49 -23 86 -12 130 40 35 43 37 44 84 38 63 -7 83 7 75 57
-4 26 0 43 14 65 26 40 25 57 -6 86 -21 19 -24 30 -19 56 4 21 -1 49 -14 80
-10 26 -22 56 -25 65 -13 43 -139 70 -209 44z"/>
<path d="M2594 2630 c-12 -5 -76 -72 -143 -149 -67 -77 -125 -142 -130 -145
-5 -4 -34 17 -65 45 l-56 51 0 -28 c0 -30 -23 -147 -35 -176 -5 -13 5 -25 41
-48 59 -37 142 -42 202 -11 33 17 245 247 294 320 34 49 20 109 -32 136 -32
17 -45 18 -76 5z"/>
<path d="M2021 2595 c-18 -8 -49 -15 -67 -15 -38 0 -40 -5 -19 -46 33 -63 7
-165 -53 -216 -17 -14 -74 -43 -127 -63 l-95 -37 0 -43 c0 -65 15 -94 57 -111
21 -9 92 -40 158 -69 66 -30 126 -56 134 -57 12 -2 17 23 27 122 7 77 20 148
34 185 31 86 38 217 15 300 -9 36 -20 65 -24 65 -3 -1 -21 -7 -40 -15z"/>
<path d="M1700 2541 c-8 -5 -96 -39 -195 -76 -99 -37 -186 -73 -194 -79 -16
-13 -146 -281 -162 -337 -21 -69 18 -119 92 -119 45 0 76 40 138 179 30 67 59
125 65 130 6 4 88 36 181 71 193 71 225 93 225 152 0 55 -35 88 -92 88 -24 0
-50 -4 -58 -9z"/>
<path d="M2782 2188 c-18 -18 -15 -42 9 -72 l20 -26 -105 0 c-93 0 -109 -3
-126 -20 -24 -24 -24 -29 -4 -58 14 -20 23 -22 125 -22 60 0 109 -3 109 -7 0
-4 -10 -17 -21 -29 -28 -30 -19 -71 18 -80 23 -6 35 3 104 73 44 44 79 86 79
93 0 7 -32 45 -72 86 -73 75 -107 91 -136 62z"/>
<path d="M1561 1907 c-46 -78 -55 -101 -59 -153 -3 -48 0 -69 17 -103 25 -48
39 -59 360 -289 129 -92 244 -180 255 -195 34 -46 25 -95 -43 -251 -34 -76
-60 -143 -59 -147 4 -13 162 -88 169 -81 18 19 250 474 255 500 13 65 -6 89
-237 298 -122 109 -233 209 -248 220 l-26 22 22 53 c13 29 22 54 20 55 -5 5
-362 164 -367 164 -3 -1 -29 -42 -59 -93z"/>
<path d="M2972 1908 c-18 -18 -15 -42 8 -71 l21 -26 -331 -3 c-354 -3 -349 -2
-350 -53 0 -44 8 -45 352 -45 180 0 328 -4 328 -8 0 -5 -9 -17 -20 -27 -11
-10 -20 -26 -20 -35 0 -20 31 -50 51 -50 19 0 169 149 169 167 0 9 -32 48 -72
89 -73 75 -107 91 -136 62z"/>
<path d="M2728 1615 c-10 -22 -8 -30 11 -55 l22 -30 -128 0 c-141 0 -173 -10
-173 -55 0 -38 28 -45 169 -45 72 0 131 -4 131 -8 0 -5 -9 -17 -20 -27 -11
-10 -20 -26 -20 -35 0 -21 31 -50 52 -50 21 0 168 148 168 169 0 9 -33 49 -73
89 -81 81 -118 93 -139 47z"/>
<path d="M1411 1449 c-126 -267 -103 -235 -271 -376 l-153 -127 74 -68 c41
-37 77 -68 81 -68 4 0 76 41 160 91 84 50 165 97 180 105 18 9 59 67 122 173
53 87 98 165 101 173 4 10 -24 35 -86 78 -51 35 -107 77 -126 93 l-33 29 -49
-103z"/>
<path d="M843 809 c-66 -72 -76 -100 -52 -152 9 -21 240 -247 252 -247 2 0 14
22 26 49 34 81 27 122 -35 190 l-36 41 27 32 27 32 -66 63 c-36 35 -70 63 -74
62 -4 -1 -35 -32 -69 -70z"/>
<path d="M1939 588 c-43 -89 -45 -123 -11 -161 9 -11 85 -53 167 -93 146 -70
150 -72 158 -51 14 36 2 125 -20 155 -17 23 -75 63 -106 75 -5 1 -1 19 9 40
10 20 16 39 13 41 -10 9 -150 76 -159 76 -6 0 -29 -37 -51 -82z"/>
</g>
</svg>
