<svg id="svg" version="1.1" xmlns="http://www.w3.org/2000/svg" xmlns:xlink="http://www.w3.org/1999/xlink" width="400" height="400" viewBox="0, 0, 400,400"><g id="svgg"><path id="path0" d="M141.602 141.797 L 83.399 200.000 150.000 266.602 L 216.601 333.203 274.902 274.903 L 333.203 216.602 266.700 150.098 C 230.123 113.521,200.108 83.594,200.000 83.594 C 199.892 83.594,173.613 109.785,141.602 141.797 M204.300 137.699 L 208.391 141.804 175.095 175.100 L 141.799 208.396 137.600 204.197 L 133.402 199.999 166.602 166.796 C 184.863 148.535,199.894 133.594,200.006 133.594 C 200.118 133.594,202.050 135.441,204.300 137.699 M237.503 170.902 L 241.594 175.007 208.298 208.303 L 175.002 241.599 170.803 237.400 L 166.605 233.202 199.805 199.999 C 218.066 181.738,233.098 166.797,233.209 166.797 C 233.321 166.797,235.253 168.644,237.503 170.902 M241.706 241.693 L 208.406 274.994 204.200 270.802 L 199.994 266.609 233.294 233.307 L 266.594 200.006 270.800 204.198 L 275.006 208.391 241.706 241.693 " stroke="none" fill="#ebf3f3" fill-rule="evenodd"></path><path id="path1" d="M78.906 50.446 C 61.401 52.696,48.410 69.238,50.395 86.753 C 50.745 89.847,51.513 92.723,51.551 91.081 C 51.574 90.041,53.918 84.710,55.314 82.519 C 70.297 59.012,106.048 63.180,114.653 89.438 C 115.710 92.663,116.164 90.935,116.190 83.594 C 116.261 62.969,99.237 47.833,78.906 50.446 M0.035 165.039 C -0.006 176.430,1.130 180.800,6.175 188.672 C 8.491 192.285,7.118 190.894,71.094 254.475 C 88.389 271.663,116.338 299.443,133.203 316.209 C 194.940 377.581,196.446 379.049,199.289 380.623 C 209.525 386.291,221.958 386.646,232.117 381.560 C 236.787 379.222,236.280 379.693,268.743 347.482 C 304.698 311.806,333.446 283.307,347.197 269.709 C 364.446 252.651,366.795 249.420,368.766 240.039 C 369.590 236.113,369.343 225.370,368.429 225.399 C 368.283 225.404,367.761 226.667,367.268 228.206 C 365.005 235.280,368.786 231.232,301.186 298.957 C 267.340 332.866,238.682 361.362,237.500 362.280 C 226.238 371.038,209.944 371.659,197.880 363.791 C 195.129 361.997,17.605 185.218,9.526 176.227 C 4.918 171.100,1.897 165.432,0.647 159.570 L 0.064 156.836 0.035 165.039 M87.597 212.598 L 83.600 216.609 150.198 283.206 L 216.797 349.804 274.999 291.602 L 333.201 233.401 329.100 229.299 L 324.998 225.198 270.800 279.396 L 216.602 333.593 154.098 271.090 L 91.594 208.587 87.597 212.598 " stroke="none" fill="#24ac63" fill-rule="evenodd"></path><path id="path2" d="M27.930 0.246 C 14.054 3.123,4.480 11.835,0.941 24.805 C 0.221 27.445,0.195 29.771,0.195 92.383 L 0.195 157.227 1.075 160.547 C 2.284 165.115,4.893 170.336,7.710 173.828 C 12.007 179.154,195.999 362.549,198.508 364.008 C 210.564 371.013,224.558 370.822,235.487 363.504 C 237.328 362.271,256.329 343.492,300.606 299.144 L 363.126 236.523 364.919 233.008 C 371.519 220.069,370.739 206.933,362.746 196.395 C 360.049 192.841,175.160 8.017,172.406 6.123 C 169.582 4.181,166.363 2.619,162.500 1.315 L 159.180 0.195 93.945 0.140 C 58.066 0.109,28.359 0.157,27.930 0.246 M93.359 51.511 C 120.147 60.207,124.894 95.484,101.367 111.016 C 73.732 129.260,38.936 98.733,53.337 68.879 C 60.519 53.990,77.841 46.473,93.359 51.511 M266.891 149.899 L 333.588 216.595 329.398 220.797 L 325.209 225.000 329.300 229.105 L 333.391 233.210 274.997 291.605 L 216.602 350.000 149.904 283.302 L 83.205 216.604 87.304 212.506 L 91.402 208.407 87.209 204.200 L 83.015 199.994 141.409 141.598 C 173.526 109.481,199.892 83.203,199.999 83.203 C 200.107 83.203,230.208 113.216,266.891 149.899 M39.063 222.778 C 39.063 222.846,39.634 223.417,40.332 224.048 L 41.602 225.195 40.454 223.926 C 39.385 222.742,39.063 222.477,39.063 222.778 M101.953 285.278 C 101.953 285.346,102.524 285.917,103.223 286.548 L 104.492 287.695 103.345 286.426 C 102.275 285.242,101.953 284.977,101.953 285.278 M164.844 347.778 C 164.844 347.846,165.415 348.417,166.113 349.048 L 167.383 350.195 166.236 348.926 C 165.166 347.742,164.844 347.477,164.844 347.778 " stroke="none" fill="#2ccc73" fill-rule="evenodd"></path><path id="path3" d="M166.605 166.794 L 133.406 199.994 137.500 204.102 L 141.594 208.209 174.896 174.909 L 208.197 141.609 204.203 137.601 C 202.007 135.397,200.118 133.594,200.006 133.594 C 199.894 133.594,184.864 148.534,166.605 166.794 M200.093 200.102 L 166.791 233.406 170.899 237.500 L 175.007 241.594 208.303 208.298 L 241.599 175.002 237.497 170.900 L 233.395 166.798 200.093 200.102 M233.399 233.593 L 200.199 266.795 204.202 270.799 L 208.205 274.802 241.501 241.506 L 274.797 208.210 270.902 204.300 C 268.760 202.150,266.915 200.391,266.803 200.391 C 266.691 200.391,251.660 215.332,233.399 233.593 " stroke="none" fill="#7c8d8c" fill-rule="evenodd"></path><path id="path4" d="M174.804 175.098 L 141.602 208.398 174.902 175.196 C 205.860 144.330,208.378 141.797,208.105 141.797 C 208.050 141.797,193.065 156.782,174.804 175.098 M199.804 200.098 L 166.602 233.398 199.902 200.196 C 230.860 169.330,233.378 166.797,233.105 166.797 C 233.050 166.797,218.065 181.782,199.804 200.098 M233.202 233.496 L 199.805 266.992 233.301 233.595 C 251.724 215.226,266.797 200.153,266.797 200.099 C 266.797 199.825,264.250 202.357,233.202 233.496 M241.405 241.699 L 208.008 275.195 241.504 241.798 C 272.643 210.750,275.175 208.203,274.901 208.203 C 274.847 208.203,259.774 223.276,241.405 241.699 " stroke="none" fill="#95a4a4" fill-rule="evenodd"></path><path id="path5" d="M79.785 50.269 C 80.161 50.368,80.776 50.368,81.152 50.269 C 81.528 50.171,81.221 50.091,80.469 50.091 C 79.717 50.091,79.409 50.171,79.785 50.269 M85.454 50.276 C 85.940 50.370,86.643 50.366,87.016 50.268 C 87.390 50.171,86.992 50.094,86.133 50.099 C 85.273 50.103,84.968 50.183,85.454 50.276 M59.546 59.863 L 58.398 61.133 59.668 59.986 C 60.851 58.916,61.117 58.594,60.815 58.594 C 60.748 58.594,60.177 59.165,59.546 59.863 M50.091 80.469 C 50.091 81.221,50.171 81.528,50.269 81.152 C 50.368 80.776,50.368 80.161,50.269 79.785 C 50.171 79.409,50.091 79.717,50.091 80.469 M116.543 83.203 C 116.543 85.029,116.610 85.776,116.692 84.863 C 116.775 83.950,116.775 82.456,116.692 81.543 C 116.610 80.630,116.543 81.377,116.543 83.203 M50.099 86.133 C 50.103 86.992,50.183 87.298,50.276 86.812 C 50.370 86.326,50.366 85.623,50.268 85.249 C 50.171 84.876,50.094 85.273,50.099 86.133 M0.091 155.859 C 0.091 156.611,0.171 156.919,0.269 156.543 C 0.368 156.167,0.368 155.552,0.269 155.176 C 0.171 154.800,0.091 155.107,0.091 155.859 M100.977 267.969 C 151.250 318.242,192.470 359.375,192.577 359.375 C 192.685 359.375,151.640 318.242,101.367 267.969 C 51.094 217.695,9.874 176.563,9.766 176.563 C 9.659 176.563,50.703 217.695,100.977 267.969 M87.203 212.601 L 83.209 216.609 150.101 283.402 L 216.992 350.195 150.292 283.397 L 83.592 216.599 87.594 212.596 C 89.796 210.395,91.507 208.594,91.397 208.594 C 91.287 208.594,89.400 210.397,87.203 212.601 M328.899 229.004 C 332.702 232.904,333.203 233.381,333.203 233.098 C 333.203 233.041,331.313 231.151,329.004 228.899 L 324.805 224.805 328.899 229.004 M299.609 300.293 L 238.086 361.914 299.707 300.391 C 333.599 266.553,361.328 238.824,361.328 238.770 C 361.328 238.497,356.808 243.003,299.609 300.293 " stroke="none" fill="#2abc69" fill-rule="evenodd"></path><path id="path6" d="M141.406 141.602 L 83.008 200.000 149.805 266.699 L 216.601 333.398 150.000 266.699 L 83.399 200.000 141.699 141.699 L 200.000 83.399 266.894 150.196 L 333.789 216.992 266.993 150.098 C 230.255 113.306,200.108 83.203,200.000 83.203 C 199.892 83.203,173.525 109.482,141.406 141.602 " stroke="none" fill="#54d48c" fill-rule="evenodd"></path><path id="path7" d="M274.804 275.098 L 216.602 333.398 274.902 275.196 C 329.105 221.084,333.378 216.797,333.105 216.797 C 333.051 216.797,306.816 243.032,274.804 275.098 " stroke="none" fill="#8cdcb4" fill-rule="evenodd"></path><path id="path8" d="" stroke="none" fill="#48e070" fill-rule="evenodd"></path></g></svg>